<?xml version="1.0" encoding="UTF-8" standalone="no"?>
<svg
   xmlns:dc="http://purl.org/dc/elements/1.1/"
   xmlns:cc="http://creativecommons.org/ns#"
   xmlns:rdf="http://www.w3.org/1999/02/22-rdf-syntax-ns#"
   xmlns:svg="http://www.w3.org/2000/svg"
   xmlns="http://www.w3.org/2000/svg"
   viewBox="0 0 431.15976 140.39597"
   height="140.39597"
   width="431.15976"
   xml:space="preserve"
   id="svg2"
   version="1.1"><metadata
     id="metadata8"><rdf:RDF><cc:Work
         rdf:about=""><dc:format>image/svg+xml</dc:format><dc:type
           rdf:resource="http://purl.org/dc/dcmitype/StillImage" /></cc:Work></rdf:RDF></metadata><defs
     id="defs6"><clipPath
       id="clipPath40"
       clipPathUnits="userSpaceOnUse"><path
         id="path38"
         d="M 0,0 H 323 V 105 H 0 Z" /></clipPath><clipPath
       id="clipPath50"
       clipPathUnits="userSpaceOnUse"><path
         id="path48"
         d="M 0,0 H 324 V 106 H 0 Z" /></clipPath><clipPath
       id="clipPath64"
       clipPathUnits="userSpaceOnUse"><path
         id="path62"
         d="m 18,103 h 48 v 2 H 18 Z" /></clipPath><clipPath
       id="clipPath74"
       clipPathUnits="userSpaceOnUse"><path
         id="path72"
         d="M 0,0 H 323 V 105 H 0 Z" /></clipPath><clipPath
       id="clipPath84"
       clipPathUnits="userSpaceOnUse"><path
         id="path82"
         d="M 0,0 H 324 V 106 H 0 Z" /></clipPath><clipPath
       id="clipPath184"
       clipPathUnits="userSpaceOnUse"><path
         id="path182"
         d="M 0,0 H 324 V 106 H 0 Z" /></clipPath><clipPath
       id="clipPath206"
       clipPathUnits="userSpaceOnUse"><path
         id="path204"
         d="M 0,0 H 324 V 106 H 0 Z" /></clipPath><clipPath
       id="clipPath224"
       clipPathUnits="userSpaceOnUse"><path
         id="path222"
         d="M 0,0 H 324 V 106 H 0 Z" /></clipPath><clipPath
       id="clipPath276"
       clipPathUnits="userSpaceOnUse"><path
         id="path274"
         d="m 321,90 h 2 v 9 h -2 z" /></clipPath></defs><g
     transform="matrix(1.3333333,0,0,1.3333333,0,3.509899e-6)"
     id="g10"><g
       id="g12"><g
         id="g14"><path
           id="path16"
           style="fill:#ffffff;fill-opacity:1;fill-rule:nonzero;stroke:#231f20;stroke-width:0.5;stroke-linecap:butt;stroke-linejoin:miter;stroke-miterlimit:10;stroke-dasharray:none;stroke-opacity:1"
           d="M 15.262,3.398 H 80.371 V 42.05 H 15.262 Z" /></g><text
         id="text20"
         style="font-variant:normal;font-weight:normal;font-size:8.00002193px;font-family:Helvetica;-inkscape-font-specification:Helvetica;writing-mode:lr-tb;fill:#231f20;fill-opacity:1;fill-rule:nonzero;stroke:none"
         transform="translate(25.809977,25.499993)"><tspan
           id="tspan18"
           y="0"
           x="0 5.7760158 10.65603 12.872035 18.648052 20.864058 23.528065 27.976076 32.424088 36.872101 41.320114">RFID reader</tspan></text>
<path
         id="path22"
         style="fill:#ffffff;fill-opacity:1;fill-rule:nonzero;stroke:none"
         d="M 238.641,3.352 H 303.75 V 42 h -65.109 z" /><g
         id="g24"><path
           id="path26"
           style="fill:none;stroke:#231f20;stroke-width:0.5;stroke-linecap:butt;stroke-linejoin:miter;stroke-miterlimit:10;stroke-dasharray:none;stroke-opacity:1"
           d="M 238.641,3.398 H 303.75 V 42.05 h -65.109 z" /></g><g
         transform="scale(1,-1)"
         id="g28"><path
           id="path30"
           style="fill:none;stroke:#231f20;stroke-width:0.5;stroke-linecap:round;stroke-linejoin:round;stroke-miterlimit:10;stroke-dasharray:none;stroke-opacity:1"
           d="m 89.141,-27.301 h 17.347 l 17.731,-8.738 v 26.461 l -17.598,-8.613 m -17.48,0 v -9.11 m 17.48,9.11 H 89.141 M 212.539,-26.93 194.84,-35.793 V -9.82 l 17.601,-8.618 h 17.5 m 0,-8.492 h -17.402 m 17.402,8.492 v -8.492" /></g><path
         id="path32"
         style="fill:#ffffff;fill-opacity:1;fill-rule:evenodd;stroke:none"
         d="m 18.219,103.199 4.062,-6.523 h 39.258 l 4.063,6.523 H 18.219" /></g><g
       id="g34"><g
         clip-path="url(#clipPath40)"
         id="g36"><g
           id="g42"><g
             id="g44"><g
               clip-path="url(#clipPath50)"
               id="g46"><g
                 id="g52"><g
                   transform="scale(1,-1)"
                   id="g54"><path
                     id="path56"
                     style="fill:none;stroke:#231f20;stroke-width:0.5;stroke-linecap:round;stroke-linejoin:round;stroke-miterlimit:10;stroke-dasharray:none;stroke-opacity:1"
                     d="m 18.219,-103.199 4.062,6.523 h 39.258 l 4.063,-6.523 z m 0,0 4.062,6.523 h 39.258 l 4.063,-6.523 z m 4.926,5.043 H 60.801 M 22.281,-100 h 39.258 m -40.117,-1.969 h 40.976" /></g></g></g></g></g></g></g><g
       id="g58"><g
         clip-path="url(#clipPath64)"
         id="g60"><path
           id="path66"
           style="fill:#ffffff;fill-opacity:1;fill-rule:evenodd;stroke:none"
           d="m 18.711,103.199 -0.492,0.246 v 1.481 l 0.492,0.121 h 46.641 l 0.25,-0.121 h 0.25 v -1.481 h -0.25 l -0.25,-0.246 H 18.711" /></g></g><g
       id="g68"><g
         clip-path="url(#clipPath74)"
         id="g70"><g
           id="g76"><g
             id="g78"><g
               clip-path="url(#clipPath84)"
               id="g80"><g
                 id="g86"><g
                   transform="scale(1,-1)"
                   id="g88"><path
                     id="path90"
                     style="fill:none;stroke:#231f20;stroke-width:0.5;stroke-linecap:round;stroke-linejoin:round;stroke-miterlimit:10;stroke-dasharray:none;stroke-opacity:1"
                     d="m 18.711,-103.199 -0.492,-0.246 v -1.481 l 0.492,-0.121 h 46.641 l 0.25,0.121 h 0.25 v 1.481 h -0.25 l -0.25,0.246 z" /></g></g></g></g></g><path
           id="path92"
           style="fill:#ffffff;fill-opacity:1;fill-rule:evenodd;stroke:none"
           d="m 21.66,82.898 8,-4.675 h 24.488 l 8.122,4.675 H 21.66" /><g
           transform="scale(1,-1)"
           id="g94"><path
             id="path96"
             style="fill:none;stroke:#231f20;stroke-width:0.5;stroke-linecap:round;stroke-linejoin:round;stroke-miterlimit:10;stroke-dasharray:none;stroke-opacity:1"
             d="m 21.66,-82.898 8,4.675 h 24.488 l 8.122,-4.675 z" /></g><path
           id="path98"
           style="fill:#ffffff;fill-opacity:1;fill-rule:evenodd;stroke:none"
           d="M 22.031,95.602 H 21.66 L 21.414,95.355 V 95.23 H 21.168 V 83.289 l 0.246,-0.117 v -0.25 h 40.984 v 0.25 l 0.243,0.117 V 95.23 h -0.243 v 0.125 L 62.27,95.602 H 22.031" /><g
           transform="scale(1,-1)"
           id="g100"><path
             id="path102"
             style="fill:none;stroke:#231f20;stroke-width:0.5;stroke-linecap:round;stroke-linejoin:round;stroke-miterlimit:10;stroke-dasharray:none;stroke-opacity:1"
             d="M 22.031,-95.602 H 21.66 l -0.246,0.247 v 0.125 h -0.246 v 11.941 l 0.246,0.117 v 0.25 h 40.984 v -0.25 l 0.243,-0.117 V -95.23 h -0.243 v -0.125 l -0.128,-0.247 z" /></g><g
           id="g104"><path
             id="path106"
             style="fill:#ffffff;fill-opacity:1;fill-rule:nonzero;stroke:#231f20;stroke-width:0.5;stroke-linecap:butt;stroke-linejoin:miter;stroke-miterlimit:10;stroke-dasharray:none;stroke-opacity:1"
             d="m 47.84,84.102 h 13.91 v 4.43 H 47.84 Z" /></g><path
           id="path108"
           style="fill:#ffffff;fill-opacity:1;fill-rule:nonzero;stroke:none"
           d="m 59.84,85 c 0,-0.238 -0.192,-0.43 -0.43,-0.43 -0.238,0 -0.43,0.192 -0.43,0.43 0,0.238 0.192,0.43 0.43,0.43 0.238,0 0.43,-0.192 0.43,-0.43" /><g
           transform="scale(1,-1)"
           id="g110"><path
             id="path112"
             style="fill:none;stroke:#231f20;stroke-width:0.5;stroke-linecap:round;stroke-linejoin:round;stroke-miterlimit:10;stroke-dasharray:none;stroke-opacity:1"
             d="m 59.84,-85 c 0,0.238 -0.192,0.43 -0.43,0.43 -0.238,0 -0.43,-0.192 -0.43,-0.43 0,-0.238 0.192,-0.43 0.43,-0.43 0.238,0 0.43,0.192 0.43,0.43 z" /></g><g
           id="g114"><path
             id="path116"
             style="fill:#ffffff;fill-opacity:1;fill-rule:nonzero;stroke:#231f20;stroke-width:0.5;stroke-linecap:butt;stroke-linejoin:miter;stroke-miterlimit:10;stroke-dasharray:none;stroke-opacity:1"
             d="m 51.738,85 h 4.188 v 2.953 h -4.188 z" /></g><g
           id="g118"><path
             id="path120"
             style="fill:#ffffff;fill-opacity:1;fill-rule:nonzero;stroke:#231f20;stroke-width:0.5;stroke-linecap:butt;stroke-linejoin:miter;stroke-miterlimit:10;stroke-dasharray:none;stroke-opacity:1"
             d="m 48.539,86.199 h 13.289 v 0.492 H 48.539 Z" /></g><g
           id="g122"><path
             id="path124"
             style="fill:#ffffff;fill-opacity:1;fill-rule:nonzero;stroke:#231f20;stroke-width:0.5;stroke-linecap:butt;stroke-linejoin:miter;stroke-miterlimit:10;stroke-dasharray:none;stroke-opacity:1"
             d="m 47.84,89.898 h 13.91 v 4.43 H 47.84 Z" /></g><path
           id="path126"
           style="fill:#ffffff;fill-opacity:1;fill-rule:nonzero;stroke:none"
           d="m 59.84,90.898 c 0,-0.238 -0.192,-0.429 -0.43,-0.429 -0.238,0 -0.43,0.191 -0.43,0.429 0,0.239 0.192,0.434 0.43,0.434 0.238,0 0.43,-0.195 0.43,-0.434" /><g
           transform="scale(1,-1)"
           id="g128"><path
             id="path130"
             style="fill:none;stroke:#231f20;stroke-width:0.5;stroke-linecap:round;stroke-linejoin:round;stroke-miterlimit:10;stroke-dasharray:none;stroke-opacity:1"
             d="m 59.84,-90.898 c 0,0.238 -0.192,0.429 -0.43,0.429 -0.238,0 -0.43,-0.191 -0.43,-0.429 0,-0.239 0.192,-0.434 0.43,-0.434 0.238,0 0.43,0.195 0.43,0.434 z m -11.012,0.574 v -3.449 m 1.723,3.449 v -3.449 m 1.722,3.449 v -3.449 m 1.844,3.449 v -3.449 m 1.723,3.449 v -3.449 m 1.722,3.449 v -3.449" /></g><path
           id="path132"
           style="fill:#ffffff;fill-opacity:1;fill-rule:evenodd;stroke:none"
           d="m 28.43,59.301 5.418,-1.723 h 16.121 l 5.543,1.723 H 28.43" /><g
           transform="scale(1,-1)"
           id="g134"><path
             id="path136"
             style="fill:none;stroke:#231f20;stroke-width:0.5;stroke-linecap:round;stroke-linejoin:round;stroke-miterlimit:10;stroke-dasharray:none;stroke-opacity:1"
             d="m 28.43,-59.301 5.418,1.723 h 16.121 l 5.543,-1.723 z" /></g><path
           id="path138"
           style="fill:#ffffff;fill-opacity:1;fill-rule:evenodd;stroke:none"
           d="M 29.289,81.398 H 29.043 L 28.797,81.152 H 28.43 L 28.184,81.031 27.938,80.785 V 80.539 L 27.812,80.168 V 60.23 l 0.126,-0.242 V 59.859 L 28.184,59.371 28.43,59.25 H 55.5 l 0.129,0.121 0.242,0.488 v 0.129 l 0.25,0.242 v 19.938 l -0.25,0.371 v 0.246 L 55.5,81.152 h -0.238 l -0.371,0.246 H 29.289" /><g
           transform="scale(1,-1)"
           id="g140"><path
             id="path142"
             style="fill:none;stroke:#231f20;stroke-width:0.5;stroke-linecap:round;stroke-linejoin:round;stroke-miterlimit:10;stroke-dasharray:none;stroke-opacity:1"
             d="m 29.289,-81.398 h -0.246 l -0.246,0.246 H 28.43 l -0.246,0.121 -0.246,0.246 v 0.246 l -0.126,0.371 v 19.938 l 0.126,0.242 v 0.129 l 0.246,0.488 0.246,0.121 H 55.5 l 0.129,-0.121 0.242,-0.488 v -0.129 l 0.25,-0.242 v -19.938 l -0.25,-0.371 v -0.246 L 55.5,-81.152 h -0.238 l -0.371,-0.246 z" /></g><path
           id="path144"
           style="fill:#ffffff;fill-opacity:1;fill-rule:evenodd;stroke:none"
           d="M 31.738,78.699 H 31.371 L 31.125,78.207 30.879,78.086 V 62.211 h 0.246 v -0.25 l 0.246,-0.371 h 21.168 l 0.371,0.371 v 16.246 l -0.371,0.492 H 31.738" /><g
           transform="scale(1,-1)"
           id="g146"><path
             id="path148"
             style="fill:none;stroke:#231f20;stroke-width:0.5;stroke-linecap:round;stroke-linejoin:round;stroke-miterlimit:10;stroke-dasharray:none;stroke-opacity:1"
             d="m 31.738,-78.699 h -0.367 l -0.246,0.492 -0.246,0.121 v 15.875 h 0.246 v 0.25 l 0.246,0.371 h 21.168 l 0.371,-0.371 v -16.246 l -0.371,-0.492 z" /></g><path
           id="path150"
           style="fill:#ffffff;fill-opacity:1;fill-rule:nonzero;stroke:none"
           d="m 44.641,85.898 h 2.336 v 7.879 h -2.336 z" /><g
           id="g152"><path
             id="path154"
             style="fill:none;stroke:#231f20;stroke-width:0.5;stroke-linecap:butt;stroke-linejoin:miter;stroke-miterlimit:10;stroke-dasharray:none;stroke-opacity:1"
             d="m 44.641,85.824 h 2.336 v 7.875 h -2.336 z" /></g><path
           id="path156"
           style="fill:#ffffff;fill-opacity:1;fill-rule:evenodd;stroke:none"
           d="m 44.641,87.102 v 0.242 h 0.367 V 86.73 h -0.121 v 0.247 h -0.246 v 0.125" /><g
           transform="scale(1,-1)"
           id="g158"><path
             id="path160"
             style="fill:none;stroke:#231f20;stroke-width:0.5;stroke-linecap:round;stroke-linejoin:round;stroke-miterlimit:10;stroke-dasharray:none;stroke-opacity:1"
             d="m 44.641,-87.102 v -0.242 h 0.367 v 0.614 h -0.121 v -0.247 h -0.246 z" /></g><path
           id="path162"
           style="fill:#ffffff;fill-opacity:1;fill-rule:nonzero;stroke:none"
           d="m 44.641,88.398 h 1.723 v 2.34 h -1.723 z" /><g
           id="g164"><path
             id="path166"
             style="fill:none;stroke:#231f20;stroke-width:0.5;stroke-linecap:butt;stroke-linejoin:miter;stroke-miterlimit:10;stroke-dasharray:none;stroke-opacity:1"
             d="m 44.641,88.461 h 1.723 v 2.34 h -1.723 z" /></g><path
           id="path168"
           style="fill:#ffffff;fill-opacity:1;fill-rule:nonzero;stroke:none"
           d="m 45.539,85.898 h 0.371 v 7.387 h -0.371 z" /><g
           id="g170"><path
             id="path172"
             style="fill:none;stroke:#231f20;stroke-width:0.5;stroke-linecap:butt;stroke-linejoin:miter;stroke-miterlimit:10;stroke-dasharray:none;stroke-opacity:1"
             d="m 45.539,85.816 h 0.371 v 7.383 h -0.371 z" /></g><path
           id="path174"
           style="fill:#dcddde;fill-opacity:1;fill-rule:evenodd;stroke:none"
           d="m 139.238,9.602 -4.429,-4.434 4.429,-4.184 v 2.707 h 38.153 V 0.984 l 4.429,4.184 -4.429,4.434 V 6.645 h -38.153 v 2.957" /><g
           id="g176"><g
             id="g178"><g
               clip-path="url(#clipPath184)"
               id="g180"><g
                 id="g186"><g
                   transform="scale(1,-1)"
                   id="g188"><path
                     id="path190"
                     style="fill:none;stroke:#231f20;stroke-width:0.5;stroke-linecap:round;stroke-linejoin:round;stroke-miterlimit:10;stroke-dasharray:none;stroke-opacity:1"
                     d="m 139.238,-9.602 -4.429,4.434 4.429,4.184 v -2.707 h 38.153 v 2.707 l 4.429,-4.184 -4.429,-4.434 v 2.957 h -38.153 v -2.957" /></g></g></g></g></g><g
           transform="scale(1,-1)"
           id="g192"><path
             id="path194"
             style="fill:#dcddde;fill-opacity:1;fill-rule:evenodd;stroke:#231f20;stroke-width:0.5;stroke-linecap:round;stroke-linejoin:round;stroke-miterlimit:10;stroke-dasharray:none;stroke-opacity:1"
             d="m 134.738,-21.102 h 42.582 v 2.957 l 4.43,-4.429 -4.43,-4.555 v 3.074 h -42.582 v 2.953" /></g><path
           id="path196"
           style="fill:#dcddde;fill-opacity:1;fill-rule:evenodd;stroke:none"
           d="m 134.738,38.699 h 42.582 v -2.707 l 4.43,4.184 -4.43,4.429 v -2.953 h -42.582 v -2.953" /><g
           id="g198"><g
             id="g200"><g
               clip-path="url(#clipPath206)"
               id="g202"><g
                 id="g208"><g
                   transform="scale(1,-1)"
                   id="g210"><path
                     id="path212"
                     style="fill:none;stroke:#231f20;stroke-width:0.5;stroke-linecap:round;stroke-linejoin:round;stroke-miterlimit:10;stroke-dasharray:none;stroke-opacity:1"
                     d="m 134.738,-38.699 h 42.582 v 2.707 l 4.43,-4.184 -4.43,-4.429 v 2.953 h -42.582 v 2.953 M 0.238,-22.578 V -81.16 m 11.403,58.582 H 0.238" /></g></g></g></g></g><path
           id="path214"
           style="fill:#231f20;fill-opacity:1;fill-rule:nonzero;stroke:none"
           d="m 10.949,25.102 4.321,-2.497 -4.321,-2.492 v 4.989" /><g
           id="g216"><g
             id="g218"><g
               clip-path="url(#clipPath224)"
               id="g220"><g
                 id="g226"><g
                   transform="scale(1,-1)"
                   id="g228"><path
                     id="path230"
                     style="fill:none;stroke:#231f20;stroke-width:0.5;stroke-linecap:round;stroke-linejoin:round;stroke-miterlimit:10;stroke-dasharray:none;stroke-opacity:1"
                     d="M 0.25,-81.199 H 21.012" /></g></g></g></g></g><path
           id="path232"
           style="fill:#231f20;fill-opacity:1;fill-rule:nonzero;stroke:none"
           d="m 20.281,83.699 4.317,-2.492 -4.317,-2.492 v 4.984" /><g
           transform="scale(1,-1)"
           id="g234"><path
             id="path236"
             style="fill:none;stroke:#231f20;stroke-width:0.5;stroke-linecap:round;stroke-linejoin:round;stroke-miterlimit:10;stroke-dasharray:none;stroke-opacity:1"
             d="m 230.141,-22.602 h 8.492 m -157.992,0 h 8.199 m 124.808,-4.55 16.247,-61.418" /></g><text
           id="text240"
           style="font-variant:normal;font-weight:normal;font-size:8.00002193px;font-family:Helvetica;-inkscape-font-specification:Helvetica;writing-mode:lr-tb;fill:#231f20;fill-opacity:1;fill-rule:nonzero;stroke:none"
           transform="translate(68.139975,96.3)"><tspan
             id="tspan238"
             y="0"
             x="0 5.3280149 9.7760267 14.224039 16.000044 17.776049 21.77606 26.224072 28.440079 30.216084 34.664097">Application</tspan></text>
<path
           id="path242"
           style="fill:#ffffff;fill-opacity:1;fill-rule:nonzero;stroke:none"
           d="m 148.441,0 h 19.648 v 8.402 h -19.648 z" /><text
           id="text246"
           style="font-variant:normal;font-weight:normal;font-size:8.00002193px;font-family:Helvetica;-inkscape-font-specification:Helvetica;writing-mode:lr-tb;fill:#231f20;fill-opacity:1;fill-rule:nonzero;stroke:none"
           transform="translate(149.83996,7.099991)"><tspan
             id="tspan244"
             y="0"
             x="0 5.7760158 10.224029 12.440034">Data</tspan></text>
<path
           id="path248"
           style="fill:#ffffff;fill-opacity:1;fill-rule:nonzero;stroke:none"
           d="m 144.84,35.398 h 27.07 v 8.719 h -27.07 z" /><text
           id="text252"
           style="font-variant:normal;font-weight:normal;font-size:8.00002193px;font-family:Helvetica;-inkscape-font-specification:Helvetica;writing-mode:lr-tb;fill:#231f20;fill-opacity:1;fill-rule:nonzero;stroke:none"
           transform="translate(145.63996,42.19999)"><tspan
             id="tspan250"
             y="0"
             x="0 5.3280149 9.7760267 14.224039 16.888046 21.33606">Energy</tspan></text>
<path
           id="path254"
           style="fill:#ffffff;fill-opacity:1;fill-rule:nonzero;stroke:none"
           d="m 147.641,17.5 h 21.258 v 8.777 h -21.258 z" /><text
           id="text268"
           style="font-variant:normal;font-weight:normal;font-size:8.00002193px;font-family:Helvetica;-inkscape-font-specification:Helvetica;writing-mode:lr-tb;fill:#231f20;fill-opacity:1;fill-rule:nonzero;stroke:none"
           transform="translate(148.23997,24.700002)"><tspan
             id="tspan256"
             y="0"
             x="0 5.7760158 7.5520205 12.000033 16.000044">Clock</tspan><tspan
             id="tspan258"
             y="-8.1360064"
             x="101.99998 107.776 112.22401 116.67203 118.88803 123.33604 127.33605 129.55206 131.32806 135.77608 139.77609">Contactless</tspan><tspan
             id="tspan260"
             y="0.86400241"
             x="99.223991 103.672 108.12002 110.33602 114.78403 117.00004 121.00005 125.44807 128.11208 130.77608 132.55208 137.00009 139.66411 141.88011">data carrier =</tspan><tspan
             id="tspan262"
             y="9.863987"
             x="101.55202 103.76802 106.43203 110.88004 115.32806 119.32806 123.77608 128.22409 132.6721 137.12012 141.56813">transponder</tspan><tspan
             id="tspan264"
             y="63.127998"
             x="84.568016 90.344032 94.792046 99.240059 103.68807 105.46407 107.24008 111.68809 116.1361 118.35211 122.80013 124.57613 129.02414 135.68816 140.13617 144.58418">Coupling element</tspan><tspan
             id="tspan266"
             y="72.127983"
             x="84.568016 87.232025 91.232033 95.680046 97.456055 99.232056 101.44807 103.66407 110.32809 112.1041 116.1041 118.76811 123.21613 128.99214 133.44016 137.44016 141.88817 144.10419 148.55219 153.0002 155.21622 159.66423 164.11223 168.56024">(coil, microwave antenna</tspan></text>
</g></g><g
       id="g270"><g
         clip-path="url(#clipPath276)"
         id="g272"><text
           id="text280"
           style="font-variant:normal;font-weight:normal;font-size:8.00002193px;font-family:Helvetica;-inkscape-font-specification:Helvetica;writing-mode:lr-tb;fill:#231f20;fill-opacity:1;fill-rule:nonzero;stroke:none"
           transform="translate(321.27998,96.827993)"><tspan
             id="tspan278"
             y="0"
             x="0">)</tspan></text>
</g></g></g></svg>