<?xml version="1.0" encoding="UTF-8"?>
<svg xmlns="http://www.w3.org/2000/svg" xmlns:xlink="http://www.w3.org/1999/xlink" width="290.929993pt" height="133.962516pt" viewBox="0 0 290.929993 133.962516" version="1.1">
<defs>
<g>
<symbol overflow="visible" id="glyph0-0">
<path style="stroke:none;" d="M 0.265625 0 L 0.265625 -5.734375 L 4.8125 -5.734375 L 4.8125 0 Z M 4.09375 -0.71875 L 4.09375 -5.015625 L 0.984375 -5.015625 L 0.984375 -0.71875 Z M 4.09375 -0.71875 "/>
</symbol>
<symbol overflow="visible" id="glyph0-1">
<path style="stroke:none;" d="M 3.03125 -5.890625 C 3.757812 -5.890625 4.320312 -5.695312 4.71875 -5.3125 C 5.125 -4.9375 5.347656 -4.503906 5.390625 -4.015625 L 4.625 -4.015625 C 4.539062 -4.390625 4.367188 -4.679688 4.109375 -4.890625 C 3.859375 -5.109375 3.5 -5.21875 3.03125 -5.21875 C 2.46875 -5.21875 2.007812 -5.019531 1.65625 -4.625 C 1.3125 -4.226562 1.140625 -3.617188 1.140625 -2.796875 C 1.140625 -2.128906 1.296875 -1.582031 1.609375 -1.15625 C 1.929688 -0.738281 2.398438 -0.53125 3.015625 -0.53125 C 3.585938 -0.53125 4.023438 -0.753906 4.328125 -1.203125 C 4.484375 -1.429688 4.601562 -1.734375 4.6875 -2.109375 L 5.4375 -2.109375 C 5.375 -1.503906 5.148438 -1 4.765625 -0.59375 C 4.316406 -0.09375 3.703125 0.15625 2.921875 0.15625 C 2.253906 0.15625 1.695312 -0.046875 1.25 -0.453125 C 0.65625 -0.992188 0.359375 -1.820312 0.359375 -2.9375 C 0.359375 -3.78125 0.582031 -4.472656 1.03125 -5.015625 C 1.507812 -5.597656 2.175781 -5.890625 3.03125 -5.890625 Z M 2.875 -5.890625 Z M 2.875 -5.890625 "/>
</symbol>
<symbol overflow="visible" id="glyph0-2">
<path style="stroke:none;" d="M 0.515625 -5.765625 L 1.21875 -5.765625 L 1.21875 -3.625 C 1.382812 -3.832031 1.535156 -3.976562 1.671875 -4.0625 C 1.898438 -4.207031 2.179688 -4.28125 2.515625 -4.28125 C 3.117188 -4.28125 3.53125 -4.070312 3.75 -3.65625 C 3.863281 -3.414062 3.921875 -3.09375 3.921875 -2.6875 L 3.921875 0 L 3.203125 0 L 3.203125 -2.640625 C 3.203125 -2.941406 3.164062 -3.164062 3.09375 -3.3125 C 2.957031 -3.539062 2.71875 -3.65625 2.375 -3.65625 C 2.082031 -3.65625 1.816406 -3.554688 1.578125 -3.359375 C 1.335938 -3.160156 1.21875 -2.78125 1.21875 -2.21875 L 1.21875 0 L 0.515625 0 Z M 0.515625 -5.765625 "/>
</symbol>
<symbol overflow="visible" id="glyph0-3">
<path style="stroke:none;" d="M 0.515625 -4.171875 L 1.234375 -4.171875 L 1.234375 0 L 0.515625 0 Z M 0.515625 -5.734375 L 1.234375 -5.734375 L 1.234375 -4.9375 L 0.515625 -4.9375 Z M 0.515625 -5.734375 "/>
</symbol>
<symbol overflow="visible" id="glyph0-4">
<path style="stroke:none;" d="M 2.28125 -0.46875 C 2.613281 -0.46875 2.882812 -0.601562 3.09375 -0.875 C 3.3125 -1.15625 3.421875 -1.570312 3.421875 -2.125 C 3.421875 -2.457031 3.375 -2.742188 3.28125 -2.984375 C 3.101562 -3.441406 2.769531 -3.671875 2.28125 -3.671875 C 1.789062 -3.671875 1.457031 -3.425781 1.28125 -2.9375 C 1.1875 -2.675781 1.140625 -2.347656 1.140625 -1.953125 C 1.140625 -1.628906 1.1875 -1.351562 1.28125 -1.125 C 1.46875 -0.6875 1.800781 -0.46875 2.28125 -0.46875 Z M 0.46875 -4.171875 L 1.140625 -4.171875 L 1.140625 -3.609375 C 1.285156 -3.796875 1.441406 -3.941406 1.609375 -4.046875 C 1.847656 -4.203125 2.125 -4.28125 2.4375 -4.28125 C 2.914062 -4.28125 3.316406 -4.097656 3.640625 -3.734375 C 3.972656 -3.378906 4.140625 -2.863281 4.140625 -2.1875 C 4.140625 -1.269531 3.90625 -0.617188 3.4375 -0.234375 C 3.132812 0.015625 2.78125 0.140625 2.375 0.140625 C 2.0625 0.140625 1.796875 0.0703125 1.578125 -0.0625 C 1.453125 -0.144531 1.316406 -0.28125 1.171875 -0.46875 L 1.171875 1.671875 L 0.46875 1.671875 Z M 0.46875 -4.171875 "/>
</symbol>
<symbol overflow="visible" id="glyph0-5">
<path style="stroke:none;" d="M 2.171875 -0.453125 C 2.640625 -0.453125 2.957031 -0.628906 3.125 -0.984375 C 3.300781 -1.335938 3.390625 -1.726562 3.390625 -2.15625 C 3.390625 -2.550781 3.328125 -2.867188 3.203125 -3.109375 C 3.003906 -3.492188 2.664062 -3.6875 2.1875 -3.6875 C 1.757812 -3.6875 1.445312 -3.519531 1.25 -3.1875 C 1.050781 -2.863281 0.953125 -2.472656 0.953125 -2.015625 C 0.953125 -1.566406 1.050781 -1.191406 1.25 -0.890625 C 1.445312 -0.597656 1.753906 -0.453125 2.171875 -0.453125 Z M 2.203125 -4.3125 C 2.742188 -4.3125 3.195312 -4.128906 3.5625 -3.765625 C 3.9375 -3.410156 4.125 -2.882812 4.125 -2.1875 C 4.125 -1.507812 3.957031 -0.945312 3.625 -0.5 C 3.300781 -0.0625 2.796875 0.15625 2.109375 0.15625 C 1.535156 0.15625 1.078125 -0.0351562 0.734375 -0.421875 C 0.398438 -0.816406 0.234375 -1.34375 0.234375 -2 C 0.234375 -2.707031 0.410156 -3.269531 0.765625 -3.6875 C 1.117188 -4.101562 1.597656 -4.3125 2.203125 -4.3125 Z M 2.1875 -4.28125 Z M 2.1875 -4.28125 "/>
</symbol>
<symbol overflow="visible" id="glyph0-6">
<path style="stroke:none;" d="M 1.21875 -4.1875 L 1.21875 -1.40625 C 1.21875 -1.195312 1.253906 -1.023438 1.328125 -0.890625 C 1.453125 -0.640625 1.679688 -0.515625 2.015625 -0.515625 C 2.503906 -0.515625 2.835938 -0.734375 3.015625 -1.171875 C 3.117188 -1.398438 3.171875 -1.71875 3.171875 -2.125 L 3.171875 -4.1875 L 3.875 -4.1875 L 3.875 0 L 3.203125 0 L 3.21875 -0.625 C 3.125 -0.457031 3.007812 -0.320312 2.875 -0.21875 C 2.601562 0 2.273438 0.109375 1.890625 0.109375 C 1.296875 0.109375 0.890625 -0.0859375 0.671875 -0.484375 C 0.554688 -0.703125 0.5 -0.988281 0.5 -1.34375 L 0.5 -4.1875 Z M 2.1875 -4.28125 Z M 2.1875 -4.28125 "/>
</symbol>
<symbol overflow="visible" id="glyph0-7">
<path style="stroke:none;" d="M 0.53125 -5.734375 L 1.234375 -5.734375 L 1.234375 0 L 0.53125 0 Z M 0.53125 -5.734375 "/>
</symbol>
<symbol overflow="visible" id="glyph0-8">
<path style="stroke:none;" d="M 0.515625 -4.1875 L 1.1875 -4.1875 L 1.1875 -3.59375 C 1.382812 -3.832031 1.59375 -4.003906 1.8125 -4.109375 C 2.03125 -4.222656 2.273438 -4.28125 2.546875 -4.28125 C 3.140625 -4.28125 3.539062 -4.070312 3.75 -3.65625 C 3.863281 -3.425781 3.921875 -3.101562 3.921875 -2.6875 L 3.921875 0 L 3.21875 0 L 3.21875 -2.640625 C 3.21875 -2.890625 3.175781 -3.09375 3.09375 -3.25 C 2.96875 -3.507812 2.742188 -3.640625 2.421875 -3.640625 C 2.253906 -3.640625 2.117188 -3.625 2.015625 -3.59375 C 1.816406 -3.539062 1.644531 -3.425781 1.5 -3.25 C 1.382812 -3.113281 1.304688 -2.972656 1.265625 -2.828125 C 1.234375 -2.679688 1.21875 -2.46875 1.21875 -2.1875 L 1.21875 0 L 0.515625 0 Z M 2.171875 -4.28125 Z M 2.171875 -4.28125 "/>
</symbol>
<symbol overflow="visible" id="glyph0-9">
<path style="stroke:none;" d="M 2 -4.265625 C 2.320312 -4.265625 2.609375 -4.179688 2.859375 -4.015625 C 2.984375 -3.921875 3.117188 -3.789062 3.265625 -3.625 L 3.265625 -4.140625 L 3.90625 -4.140625 L 3.90625 -0.34375 C 3.90625 0.1875 3.828125 0.609375 3.671875 0.921875 C 3.378906 1.484375 2.828125 1.765625 2.015625 1.765625 C 1.566406 1.765625 1.1875 1.664062 0.875 1.46875 C 0.570312 1.269531 0.40625 0.953125 0.375 0.515625 L 1.078125 0.515625 C 1.117188 0.703125 1.1875 0.847656 1.28125 0.953125 C 1.445312 1.109375 1.695312 1.1875 2.03125 1.1875 C 2.570312 1.1875 2.925781 1 3.09375 0.625 C 3.195312 0.394531 3.242188 -0.00390625 3.234375 -0.578125 C 3.085938 -0.367188 2.914062 -0.210938 2.71875 -0.109375 C 2.519531 -0.00390625 2.257812 0.046875 1.9375 0.046875 C 1.488281 0.046875 1.09375 -0.113281 0.75 -0.4375 C 0.40625 -0.757812 0.234375 -1.289062 0.234375 -2.03125 C 0.234375 -2.726562 0.40625 -3.273438 0.75 -3.671875 C 1.09375 -4.066406 1.507812 -4.265625 2 -4.265625 Z M 3.265625 -2.109375 C 3.265625 -2.628906 3.15625 -3.015625 2.9375 -3.265625 C 2.726562 -3.515625 2.457031 -3.640625 2.125 -3.640625 C 1.625 -3.640625 1.285156 -3.40625 1.109375 -2.9375 C 1.015625 -2.695312 0.96875 -2.375 0.96875 -1.96875 C 0.96875 -1.5 1.0625 -1.140625 1.25 -0.890625 C 1.4375 -0.648438 1.691406 -0.53125 2.015625 -0.53125 C 2.523438 -0.53125 2.882812 -0.753906 3.09375 -1.203125 C 3.207031 -1.460938 3.265625 -1.765625 3.265625 -2.109375 Z M 2.078125 -4.28125 Z M 2.078125 -4.28125 "/>
</symbol>
<symbol overflow="visible" id="glyph0-10">
<path style="stroke:none;" d=""/>
</symbol>
<symbol overflow="visible" id="glyph0-11">
<path style="stroke:none;" d="M 2.265625 -4.28125 C 2.554688 -4.28125 2.84375 -4.207031 3.125 -4.0625 C 3.40625 -3.925781 3.617188 -3.75 3.765625 -3.53125 C 3.898438 -3.320312 3.992188 -3.078125 4.046875 -2.796875 C 4.085938 -2.597656 4.109375 -2.289062 4.109375 -1.875 L 1.03125 -1.875 C 1.050781 -1.445312 1.15625 -1.101562 1.34375 -0.84375 C 1.53125 -0.59375 1.816406 -0.46875 2.203125 -0.46875 C 2.578125 -0.46875 2.875 -0.585938 3.09375 -0.828125 C 3.21875 -0.960938 3.304688 -1.125 3.359375 -1.3125 L 4.046875 -1.3125 C 4.023438 -1.15625 3.960938 -0.984375 3.859375 -0.796875 C 3.753906 -0.609375 3.640625 -0.457031 3.515625 -0.34375 C 3.304688 -0.132812 3.039062 0.0078125 2.71875 0.09375 C 2.550781 0.132812 2.363281 0.15625 2.15625 0.15625 C 1.632812 0.15625 1.191406 -0.03125 0.828125 -0.40625 C 0.460938 -0.789062 0.28125 -1.328125 0.28125 -2.015625 C 0.28125 -2.679688 0.460938 -3.222656 0.828125 -3.640625 C 1.191406 -4.066406 1.671875 -4.28125 2.265625 -4.28125 Z M 3.375 -2.421875 C 3.351562 -2.734375 3.289062 -2.976562 3.1875 -3.15625 C 2.988281 -3.5 2.664062 -3.671875 2.21875 -3.671875 C 1.894531 -3.671875 1.625 -3.550781 1.40625 -3.3125 C 1.1875 -3.082031 1.070312 -2.785156 1.0625 -2.421875 Z M 2.1875 -4.28125 Z M 2.1875 -4.28125 "/>
</symbol>
<symbol overflow="visible" id="glyph0-12">
<path style="stroke:none;" d="M 0.515625 -4.1875 L 1.21875 -4.1875 L 1.21875 -3.59375 C 1.382812 -3.800781 1.535156 -3.953125 1.671875 -4.046875 C 1.898438 -4.203125 2.160156 -4.28125 2.453125 -4.28125 C 2.785156 -4.28125 3.054688 -4.195312 3.265625 -4.03125 C 3.378906 -3.9375 3.484375 -3.800781 3.578125 -3.625 C 3.734375 -3.84375 3.914062 -4.003906 4.125 -4.109375 C 4.332031 -4.222656 4.566406 -4.28125 4.828125 -4.28125 C 5.390625 -4.28125 5.773438 -4.078125 5.984375 -3.671875 C 6.085938 -3.453125 6.140625 -3.15625 6.140625 -2.78125 L 6.140625 0 L 5.421875 0 L 5.421875 -2.90625 C 5.421875 -3.1875 5.347656 -3.378906 5.203125 -3.484375 C 5.066406 -3.585938 4.898438 -3.640625 4.703125 -3.640625 C 4.421875 -3.640625 4.179688 -3.546875 3.984375 -3.359375 C 3.785156 -3.171875 3.6875 -2.863281 3.6875 -2.4375 L 3.6875 0 L 2.96875 0 L 2.96875 -2.734375 C 2.96875 -3.015625 2.9375 -3.222656 2.875 -3.359375 C 2.757812 -3.546875 2.554688 -3.640625 2.265625 -3.640625 C 2.003906 -3.640625 1.765625 -3.535156 1.546875 -3.328125 C 1.328125 -3.128906 1.21875 -2.757812 1.21875 -2.21875 L 1.21875 0 L 0.515625 0 Z M 0.515625 -4.1875 "/>
</symbol>
<symbol overflow="visible" id="glyph0-13">
<path style="stroke:none;" d="M 0.65625 -5.359375 L 1.375 -5.359375 L 1.375 -4.1875 L 2.03125 -4.1875 L 2.03125 -3.609375 L 1.375 -3.609375 L 1.375 -0.875 C 1.375 -0.726562 1.421875 -0.632812 1.515625 -0.59375 C 1.566406 -0.5625 1.660156 -0.546875 1.796875 -0.546875 C 1.828125 -0.546875 1.859375 -0.546875 1.890625 -0.546875 C 1.929688 -0.546875 1.976562 -0.550781 2.03125 -0.5625 L 2.03125 0 C 1.957031 0.0195312 1.875 0.0351562 1.78125 0.046875 C 1.695312 0.0546875 1.601562 0.0625 1.5 0.0625 C 1.175781 0.0625 0.953125 -0.0195312 0.828125 -0.1875 C 0.710938 -0.351562 0.65625 -0.570312 0.65625 -0.84375 L 0.65625 -3.609375 L 0.09375 -3.609375 L 0.09375 -4.1875 L 0.65625 -4.1875 Z M 0.65625 -5.359375 "/>
</symbol>
<symbol overflow="visible" id="glyph0-14">
<path style="stroke:none;" d="M 2.375 -5.828125 C 1.957031 -5.035156 1.691406 -4.453125 1.578125 -4.078125 C 1.390625 -3.503906 1.296875 -2.847656 1.296875 -2.109375 C 1.296875 -1.347656 1.398438 -0.65625 1.609375 -0.03125 C 1.742188 0.351562 2 0.910156 2.375 1.640625 L 1.90625 1.640625 C 1.53125 1.046875 1.296875 0.664062 1.203125 0.5 C 1.109375 0.332031 1.007812 0.109375 0.90625 -0.171875 C 0.757812 -0.554688 0.65625 -0.96875 0.59375 -1.40625 C 0.570312 -1.632812 0.5625 -1.851562 0.5625 -2.0625 C 0.5625 -2.832031 0.679688 -3.515625 0.921875 -4.109375 C 1.078125 -4.492188 1.394531 -5.066406 1.875 -5.828125 Z M 2.375 -5.828125 "/>
</symbol>
<symbol overflow="visible" id="glyph0-15">
<path style="stroke:none;" d="M 2.125 -4.3125 C 2.601562 -4.3125 2.988281 -4.195312 3.28125 -3.96875 C 3.570312 -3.738281 3.75 -3.34375 3.8125 -2.78125 L 3.125 -2.78125 C 3.082031 -3.039062 2.988281 -3.253906 2.84375 -3.421875 C 2.695312 -3.585938 2.457031 -3.671875 2.125 -3.671875 C 1.675781 -3.671875 1.359375 -3.453125 1.171875 -3.015625 C 1.046875 -2.734375 0.984375 -2.382812 0.984375 -1.96875 C 0.984375 -1.550781 1.070312 -1.195312 1.25 -0.90625 C 1.425781 -0.625 1.703125 -0.484375 2.078125 -0.484375 C 2.367188 -0.484375 2.597656 -0.570312 2.765625 -0.75 C 2.941406 -0.925781 3.0625 -1.171875 3.125 -1.484375 L 3.8125 -1.484375 C 3.738281 -0.929688 3.546875 -0.523438 3.234375 -0.265625 C 2.921875 -0.00390625 2.519531 0.125 2.03125 0.125 C 1.476562 0.125 1.039062 -0.0703125 0.71875 -0.46875 C 0.394531 -0.875 0.234375 -1.378906 0.234375 -1.984375 C 0.234375 -2.710938 0.410156 -3.28125 0.765625 -3.6875 C 1.117188 -4.101562 1.570312 -4.3125 2.125 -4.3125 Z M 2.015625 -4.28125 Z M 2.015625 -4.28125 "/>
</symbol>
<symbol overflow="visible" id="glyph0-16">
<path style="stroke:none;" d="M 0.671875 0.8125 C 0.847656 0.78125 0.972656 0.65625 1.046875 0.4375 C 1.085938 0.320312 1.109375 0.207031 1.109375 0.09375 C 1.109375 0.0820312 1.101562 0.0664062 1.09375 0.046875 C 1.09375 0.0351562 1.09375 0.0195312 1.09375 0 L 0.671875 0 L 0.671875 -0.859375 L 1.5 -0.859375 L 1.5 -0.0625 C 1.5 0.25 1.4375 0.519531 1.3125 0.75 C 1.1875 0.988281 0.972656 1.132812 0.671875 1.1875 Z M 0.671875 0.8125 "/>
</symbol>
<symbol overflow="visible" id="glyph0-17">
<path style="stroke:none;" d="M 1.0625 -1.109375 C 1.0625 -0.910156 1.132812 -0.75 1.28125 -0.625 C 1.425781 -0.507812 1.601562 -0.453125 1.8125 -0.453125 C 2.050781 -0.453125 2.289062 -0.507812 2.53125 -0.625 C 2.914062 -0.820312 3.109375 -1.132812 3.109375 -1.5625 L 3.109375 -2.125 C 3.023438 -2.070312 2.914062 -2.023438 2.78125 -1.984375 C 2.644531 -1.953125 2.507812 -1.929688 2.375 -1.921875 L 1.953125 -1.859375 C 1.703125 -1.828125 1.507812 -1.773438 1.375 -1.703125 C 1.164062 -1.578125 1.0625 -1.378906 1.0625 -1.109375 Z M 2.765625 -2.53125 C 2.921875 -2.550781 3.023438 -2.617188 3.078125 -2.734375 C 3.109375 -2.796875 3.125 -2.890625 3.125 -3.015625 C 3.125 -3.253906 3.039062 -3.425781 2.875 -3.53125 C 2.707031 -3.632812 2.460938 -3.6875 2.140625 -3.6875 C 1.773438 -3.6875 1.515625 -3.585938 1.359375 -3.390625 C 1.273438 -3.285156 1.21875 -3.125 1.1875 -2.90625 L 0.53125 -2.90625 C 0.550781 -3.425781 0.71875 -3.785156 1.03125 -3.984375 C 1.351562 -4.179688 1.726562 -4.28125 2.15625 -4.28125 C 2.644531 -4.28125 3.046875 -4.1875 3.359375 -4 C 3.660156 -3.8125 3.8125 -3.519531 3.8125 -3.125 L 3.8125 -0.71875 C 3.8125 -0.644531 3.828125 -0.585938 3.859375 -0.546875 C 3.890625 -0.503906 3.953125 -0.484375 4.046875 -0.484375 C 4.078125 -0.484375 4.113281 -0.484375 4.15625 -0.484375 C 4.195312 -0.484375 4.238281 -0.488281 4.28125 -0.5 L 4.28125 0.015625 C 4.164062 0.046875 4.078125 0.0664062 4.015625 0.078125 C 3.960938 0.0859375 3.890625 0.09375 3.796875 0.09375 C 3.554688 0.09375 3.378906 0.00390625 3.265625 -0.171875 C 3.210938 -0.265625 3.171875 -0.394531 3.140625 -0.5625 C 3.003906 -0.375 2.800781 -0.207031 2.53125 -0.0625 C 2.257812 0.0703125 1.960938 0.140625 1.640625 0.140625 C 1.253906 0.140625 0.9375 0.0234375 0.6875 -0.203125 C 0.445312 -0.441406 0.328125 -0.738281 0.328125 -1.09375 C 0.328125 -1.488281 0.445312 -1.789062 0.6875 -2 C 0.925781 -2.21875 1.242188 -2.347656 1.640625 -2.390625 Z M 2.171875 -4.28125 Z M 2.171875 -4.28125 "/>
</symbol>
<symbol overflow="visible" id="glyph0-18">
<path style="stroke:none;" d="M 0.28125 1.640625 C 0.695312 0.828125 0.960938 0.234375 1.078125 -0.140625 C 1.265625 -0.691406 1.359375 -1.347656 1.359375 -2.109375 C 1.359375 -2.859375 1.25 -3.546875 1.03125 -4.171875 C 0.90625 -4.554688 0.648438 -5.109375 0.265625 -5.828125 L 0.734375 -5.828125 C 1.140625 -5.191406 1.382812 -4.796875 1.46875 -4.640625 C 1.550781 -4.492188 1.644531 -4.289062 1.75 -4.03125 C 1.875 -3.707031 1.960938 -3.382812 2.015625 -3.0625 C 2.066406 -2.75 2.09375 -2.441406 2.09375 -2.140625 C 2.09375 -1.367188 1.96875 -0.679688 1.71875 -0.078125 C 1.570312 0.304688 1.253906 0.878906 0.765625 1.640625 Z M 0.28125 1.640625 "/>
</symbol>
<symbol overflow="visible" id="glyph0-19">
<path style="stroke:none;" d="M 0.625 -5.734375 L 1.421875 -5.734375 L 1.421875 -3.375 L 4.40625 -3.375 L 4.40625 -5.734375 L 5.1875 -5.734375 L 5.1875 0 L 4.40625 0 L 4.40625 -2.6875 L 1.421875 -2.6875 L 1.421875 0 L 0.625 0 Z M 0.625 -5.734375 "/>
</symbol>
<symbol overflow="visible" id="glyph0-20">
<path style="stroke:none;" d="M 0.9375 -1.3125 C 0.957031 -1.082031 1.015625 -0.90625 1.109375 -0.78125 C 1.285156 -0.550781 1.59375 -0.4375 2.03125 -0.4375 C 2.289062 -0.4375 2.519531 -0.492188 2.71875 -0.609375 C 2.914062 -0.722656 3.015625 -0.894531 3.015625 -1.125 C 3.015625 -1.3125 2.9375 -1.453125 2.78125 -1.546875 C 2.675781 -1.597656 2.472656 -1.660156 2.171875 -1.734375 L 1.625 -1.875 C 1.257812 -1.96875 0.992188 -2.066406 0.828125 -2.171875 C 0.523438 -2.367188 0.375 -2.632812 0.375 -2.96875 C 0.375 -3.363281 0.515625 -3.679688 0.796875 -3.921875 C 1.085938 -4.171875 1.472656 -4.296875 1.953125 -4.296875 C 2.585938 -4.296875 3.039062 -4.109375 3.3125 -3.734375 C 3.488281 -3.503906 3.578125 -3.253906 3.578125 -2.984375 L 2.90625 -2.984375 C 2.894531 -3.140625 2.835938 -3.285156 2.734375 -3.421875 C 2.578125 -3.597656 2.300781 -3.6875 1.90625 -3.6875 C 1.632812 -3.6875 1.429688 -3.632812 1.296875 -3.53125 C 1.160156 -3.4375 1.09375 -3.304688 1.09375 -3.140625 C 1.09375 -2.953125 1.179688 -2.804688 1.359375 -2.703125 C 1.460938 -2.640625 1.617188 -2.582031 1.828125 -2.53125 L 2.28125 -2.421875 C 2.789062 -2.296875 3.128906 -2.175781 3.296875 -2.0625 C 3.578125 -1.882812 3.71875 -1.601562 3.71875 -1.21875 C 3.71875 -0.84375 3.570312 -0.519531 3.28125 -0.25 C 3 0.0195312 2.570312 0.15625 2 0.15625 C 1.375 0.15625 0.929688 0.015625 0.671875 -0.265625 C 0.410156 -0.546875 0.273438 -0.894531 0.265625 -1.3125 Z M 1.96875 -4.28125 Z M 1.96875 -4.28125 "/>
</symbol>
</g>
<clipPath id="clip1">
  <path d="M 281 24 L 290 24 L 290 36 L 281 36 Z M 281 24 "/>
</clipPath>
<clipPath id="clip2">
  <path d="M 288 31 L 290 31 L 290 36 L 288 36 Z M 288 31 "/>
</clipPath>
<clipPath id="clip3">
  <path d="M 283 28 L 290 28 L 290 41 L 283 41 Z M 283 28 "/>
</clipPath>
<clipPath id="clip4">
  <path d="M 289 35 L 290 35 L 290 41 L 289 41 Z M 289 35 "/>
</clipPath>
<clipPath id="clip5">
  <path d="M 283 33 L 290 33 L 290 47 L 283 47 Z M 283 33 "/>
</clipPath>
<clipPath id="clip6">
  <path d="M 283 39 L 290 39 L 290 52 L 283 52 Z M 283 39 "/>
</clipPath>
<clipPath id="clip7">
  <path d="M 283 44 L 290 44 L 290 57 L 283 57 Z M 283 44 "/>
</clipPath>
<clipPath id="clip8">
  <path d="M 283 49 L 290 49 L 290 63 L 283 63 Z M 283 49 "/>
</clipPath>
<clipPath id="clip9">
  <path d="M 283 55 L 290 55 L 290 68 L 283 68 Z M 283 55 "/>
</clipPath>
<clipPath id="clip10">
  <path d="M 283 60 L 290 60 L 290 74 L 283 74 Z M 283 60 "/>
</clipPath>
<clipPath id="clip11">
  <path d="M 283 66 L 290 66 L 290 79 L 283 79 Z M 283 66 "/>
</clipPath>
<clipPath id="clip12">
  <path d="M 283 71 L 290 71 L 290 85 L 283 85 Z M 283 71 "/>
</clipPath>
<clipPath id="clip13">
  <path d="M 283 77 L 290 77 L 290 90 L 283 90 Z M 283 77 "/>
</clipPath>
<clipPath id="clip14">
  <path d="M 283 82 L 290 82 L 290 95 L 283 95 Z M 283 82 "/>
</clipPath>
<clipPath id="clip15">
  <path d="M 283 88 L 290 88 L 290 101 L 283 101 Z M 283 88 "/>
</clipPath>
<clipPath id="clip16">
  <path d="M 289 94 L 290 94 L 290 101 L 289 101 Z M 289 94 "/>
</clipPath>
<clipPath id="clip17">
  <path d="M 281 93 L 290 93 L 290 105 L 281 105 Z M 281 93 "/>
</clipPath>
<clipPath id="clip18">
  <path d="M 288 99 L 290 99 L 290 105 L 288 105 Z M 288 99 "/>
</clipPath>
<clipPath id="clip19">
  <path d="M 152 128 L 157 128 L 157 133 L 152 133 Z M 152 128 "/>
</clipPath>
</defs>
<g id="surface1">
<path style=" stroke:none;fill-rule:evenodd;fill:rgb(77.645874%,78.430176%,79.214478%);fill-opacity:1;" d="M 109.578125 21.292969 L 116.371094 28.085938 L 119.238281 31.257812 L 112.296875 24.464844 L 109.578125 21.292969 "/>
<path style="fill:none;stroke-width:0.5;stroke-linecap:round;stroke-linejoin:round;stroke:rgb(13.725281%,12.156677%,12.548828%);stroke-opacity:1;stroke-miterlimit:10;" d="M 116.28125 -28.09375 L 119.148438 -31.265625 " transform="matrix(1,0,0,-1,0,0)"/>
<path style=" stroke:none;fill-rule:evenodd;fill:rgb(77.645874%,78.430176%,79.214478%);fill-opacity:1;" d="M 112.28125 24.496094 L 119.222656 31.285156 L 120.734375 35.515625 L 113.789062 28.71875 L 112.28125 24.496094 "/>
<path style="fill:none;stroke-width:0.5;stroke-linecap:round;stroke-linejoin:round;stroke:rgb(13.725281%,12.156677%,12.548828%);stroke-opacity:1;stroke-miterlimit:10;" d="M 119.179688 -31.292969 L 120.691406 -35.519531 " transform="matrix(1,0,0,-1,0,0)"/>
<path style=" stroke:none;fill-rule:evenodd;fill:rgb(77.645874%,78.430176%,79.214478%);fill-opacity:1;" d="M 113.78125 28.695312 L 120.722656 35.488281 L 121.175781 40.625 L 114.234375 33.828125 L 113.78125 28.695312 "/>
<path style="fill:none;stroke-width:0.5;stroke-linecap:round;stroke-linejoin:round;stroke:rgb(13.725281%,12.156677%,12.548828%);stroke-opacity:1;stroke-miterlimit:10;" d="M 120.679688 -35.496094 L 121.132812 -40.628906 " transform="matrix(1,0,0,-1,0,0)"/>
<path style=" stroke:none;fill-rule:evenodd;fill:rgb(77.645874%,78.430176%,79.214478%);fill-opacity:1;" d="M 114.179688 33.894531 L 121.121094 40.6875 L 121.121094 46.125 L 114.179688 39.328125 L 114.179688 33.894531 "/>
<path style="fill:none;stroke-width:0.5;stroke-linecap:round;stroke-linejoin:round;stroke:rgb(13.725281%,12.156677%,12.548828%);stroke-opacity:1;stroke-miterlimit:10;" d="M 121.179688 -40.695312 L 121.179688 -46.128906 " transform="matrix(1,0,0,-1,0,0)"/>
<path style=" stroke:none;fill-rule:evenodd;fill:rgb(77.645874%,78.430176%,79.214478%);fill-opacity:1;" d="M 114.179688 39.292969 L 121.121094 46.085938 L 121.121094 51.523438 L 114.179688 44.730469 L 114.179688 39.292969 "/>
<path style="fill:none;stroke-width:0.5;stroke-linecap:round;stroke-linejoin:round;stroke:rgb(13.725281%,12.156677%,12.548828%);stroke-opacity:1;stroke-miterlimit:10;" d="M 121.179688 -46.09375 L 121.179688 -51.53125 " transform="matrix(1,0,0,-1,0,0)"/>
<path style=" stroke:none;fill-rule:evenodd;fill:rgb(77.645874%,78.430176%,79.214478%);fill-opacity:1;" d="M 114.179688 44.695312 L 121.121094 51.488281 L 121.121094 56.773438 L 114.179688 49.976562 L 114.179688 44.695312 "/>
<path style="fill:none;stroke-width:0.5;stroke-linecap:round;stroke-linejoin:round;stroke:rgb(13.725281%,12.156677%,12.548828%);stroke-opacity:1;stroke-miterlimit:10;" d="M 121.179688 -51.496094 L 121.179688 -56.777344 " transform="matrix(1,0,0,-1,0,0)"/>
<path style=" stroke:none;fill-rule:evenodd;fill:rgb(77.645874%,78.430176%,79.214478%);fill-opacity:1;" d="M 114.179688 49.996094 L 121.121094 56.789062 L 121.121094 62.222656 L 114.179688 55.429688 L 114.179688 49.996094 "/>
<path style="fill:none;stroke-width:0.5;stroke-linecap:round;stroke-linejoin:round;stroke:rgb(13.725281%,12.156677%,12.548828%);stroke-opacity:1;stroke-miterlimit:10;" d="M 121.179688 -56.792969 L 121.179688 -62.230469 " transform="matrix(1,0,0,-1,0,0)"/>
<path style=" stroke:none;fill-rule:evenodd;fill:rgb(77.645874%,78.430176%,79.214478%);fill-opacity:1;" d="M 114.179688 55.496094 L 121.121094 62.289062 L 121.121094 67.722656 L 114.179688 60.925781 L 114.179688 55.496094 "/>
<path style="fill:none;stroke-width:0.5;stroke-linecap:round;stroke-linejoin:round;stroke:rgb(13.725281%,12.156677%,12.548828%);stroke-opacity:1;stroke-miterlimit:10;" d="M 121.179688 -62.195312 L 121.179688 -67.628906 " transform="matrix(1,0,0,-1,0,0)"/>
<path style=" stroke:none;fill-rule:evenodd;fill:rgb(77.645874%,78.430176%,79.214478%);fill-opacity:1;" d="M 114.179688 60.894531 L 121.121094 67.6875 L 121.121094 73.273438 L 114.179688 66.328125 L 114.179688 60.894531 "/>
<path style="fill:none;stroke-width:0.5;stroke-linecap:round;stroke-linejoin:round;stroke:rgb(13.725281%,12.156677%,12.548828%);stroke-opacity:1;stroke-miterlimit:10;" d="M 121.179688 -67.695312 L 121.179688 -73.28125 " transform="matrix(1,0,0,-1,0,0)"/>
<path style=" stroke:none;fill-rule:evenodd;fill:rgb(77.645874%,78.430176%,79.214478%);fill-opacity:1;" d="M 114.179688 66.292969 L 121.121094 73.238281 L 121.121094 78.523438 L 114.179688 71.730469 L 114.179688 66.292969 "/>
<path style="fill:none;stroke-width:0.5;stroke-linecap:round;stroke-linejoin:round;stroke:rgb(13.725281%,12.156677%,12.548828%);stroke-opacity:1;stroke-miterlimit:10;" d="M 121.179688 -73.292969 L 121.179688 -78.578125 " transform="matrix(1,0,0,-1,0,0)"/>
<path style=" stroke:none;fill-rule:evenodd;fill:rgb(77.645874%,78.430176%,79.214478%);fill-opacity:1;" d="M 114.179688 71.792969 L 121.121094 78.585938 L 121.121094 84.023438 L 114.179688 77.230469 L 114.179688 71.792969 "/>
<path style="fill:none;stroke-width:0.5;stroke-linecap:round;stroke-linejoin:round;stroke:rgb(13.725281%,12.156677%,12.548828%);stroke-opacity:1;stroke-miterlimit:10;" d="M 121.179688 -78.496094 L 121.179688 -83.929688 " transform="matrix(1,0,0,-1,0,0)"/>
<path style=" stroke:none;fill-rule:evenodd;fill:rgb(77.645874%,78.430176%,79.214478%);fill-opacity:1;" d="M 114.179688 77.195312 L 121.121094 83.988281 L 121.121094 89.425781 L 114.179688 82.628906 L 114.179688 77.195312 "/>
<path style="fill:none;stroke-width:0.5;stroke-linecap:round;stroke-linejoin:round;stroke:rgb(13.725281%,12.156677%,12.548828%);stroke-opacity:1;stroke-miterlimit:10;" d="M 121.179688 -83.996094 L 121.179688 -89.429688 " transform="matrix(1,0,0,-1,0,0)"/>
<path style=" stroke:none;fill-rule:evenodd;fill:rgb(77.645874%,78.430176%,79.214478%);fill-opacity:1;" d="M 114.179688 82.59375 L 121.121094 89.386719 L 121.121094 94.824219 L 114.179688 88.03125 L 114.179688 82.59375 "/>
<path style="fill:none;stroke-width:0.5;stroke-linecap:round;stroke-linejoin:round;stroke:rgb(13.725281%,12.156677%,12.548828%);stroke-opacity:1;stroke-miterlimit:10;" d="M 121.179688 -89.394531 L 121.179688 -94.828125 " transform="matrix(1,0,0,-1,0,0)"/>
<path style=" stroke:none;fill-rule:evenodd;fill:rgb(77.645874%,78.430176%,79.214478%);fill-opacity:1;" d="M 114.179688 88.09375 L 121.121094 94.886719 L 120.671875 100.023438 L 113.726562 93.226562 L 114.179688 88.09375 "/>
<path style="fill:none;stroke-width:0.5;stroke-linecap:round;stroke-linejoin:round;stroke:rgb(13.725281%,12.156677%,12.548828%);stroke-opacity:1;stroke-miterlimit:10;" d="M 121.179688 -94.792969 L 120.726562 -99.925781 " transform="matrix(1,0,0,-1,0,0)"/>
<path style=" stroke:none;fill-rule:evenodd;fill:rgb(77.645874%,78.430176%,79.214478%);fill-opacity:1;" d="M 113.78125 93.195312 L 120.722656 99.988281 L 119.214844 104.214844 L 112.269531 97.417969 L 113.78125 93.195312 "/>
<path style="fill:none;stroke-width:0.5;stroke-linecap:round;stroke-linejoin:round;stroke:rgb(13.725281%,12.156677%,12.548828%);stroke-opacity:1;stroke-miterlimit:10;" d="M 120.679688 -99.996094 L 119.171875 -104.21875 " transform="matrix(1,0,0,-1,0,0)"/>
<path style=" stroke:none;fill-rule:evenodd;fill:rgb(77.645874%,78.430176%,79.214478%);fill-opacity:1;" d="M 112.28125 97.394531 L 119.222656 104.1875 L 116.355469 107.355469 L 109.5625 100.566406 L 112.28125 97.394531 "/>
<path style="fill:none;stroke-width:0.5;stroke-linecap:round;stroke-linejoin:round;stroke:rgb(13.725281%,12.156677%,12.548828%);stroke-opacity:1;stroke-miterlimit:10;" d="M 119.179688 -104.195312 L 116.3125 -107.363281 " transform="matrix(1,0,0,-1,0,0)"/>
<path style=" stroke:none;fill-rule:evenodd;fill:rgb(90.194702%,90.586853%,90.979004%);fill-opacity:1;" d="M 109.578125 100.59375 L 116.371094 107.386719 L 112.597656 109.800781 L 105.804688 103.007812 L 109.578125 100.59375 "/>
<path style="fill:none;stroke-width:0.5;stroke-linecap:round;stroke-linejoin:round;stroke:rgb(13.725281%,12.156677%,12.548828%);stroke-opacity:1;stroke-miterlimit:10;" d="M 116.28125 -107.394531 L 112.507812 -109.808594 " transform="matrix(1,0,0,-1,0,0)"/>
<path style=" stroke:none;fill-rule:evenodd;fill:rgb(90.194702%,90.586853%,90.979004%);fill-opacity:1;" d="M 105.78125 102.996094 L 112.570312 109.785156 L 106.835938 110.996094 L 100.042969 104.203125 L 105.78125 102.996094 "/>
<path style="fill:none;stroke-width:0.5;stroke-linecap:round;stroke-linejoin:round;stroke:rgb(13.725281%,12.156677%,12.548828%);stroke-opacity:1;stroke-miterlimit:10;" d="M 112.578125 -109.792969 L 106.84375 -111.003906 " transform="matrix(1,0,0,-1,0,0)"/>
<path style=" stroke:none;fill-rule:evenodd;fill:rgb(90.194702%,90.586853%,90.979004%);fill-opacity:1;" d="M 99.980469 104.195312 L 106.773438 110.988281 L 99.828125 110.988281 L 93.035156 104.195312 L 99.980469 104.195312 "/>
<path style="fill:none;stroke-width:0.5;stroke-linecap:round;stroke-linejoin:round;stroke:rgb(13.725281%,12.156677%,12.548828%);stroke-opacity:1;stroke-miterlimit:10;" d="M 106.78125 -110.996094 L 99.835938 -110.996094 " transform="matrix(1,0,0,-1,0,0)"/>
<path style=" stroke:none;fill-rule:evenodd;fill:rgb(90.194702%,90.586853%,90.979004%);fill-opacity:1;" d="M 93.078125 104.195312 L 99.871094 110.988281 L 92.777344 110.988281 L 85.988281 104.195312 L 93.078125 104.195312 "/>
<path style="fill:none;stroke-width:0.5;stroke-linecap:round;stroke-linejoin:round;stroke:rgb(13.725281%,12.156677%,12.548828%);stroke-opacity:1;stroke-miterlimit:10;" d="M 99.878906 -110.996094 L 92.785156 -110.996094 " transform="matrix(1,0,0,-1,0,0)"/>
<path style=" stroke:none;fill-rule:evenodd;fill:rgb(90.194702%,90.586853%,90.979004%);fill-opacity:1;" d="M 85.980469 104.195312 L 92.773438 110.988281 L 85.527344 110.988281 L 78.734375 104.195312 L 85.980469 104.195312 "/>
<path style="fill:none;stroke-width:0.5;stroke-linecap:round;stroke-linejoin:round;stroke:rgb(13.725281%,12.156677%,12.548828%);stroke-opacity:1;stroke-miterlimit:10;" d="M 92.78125 -110.996094 L 85.535156 -110.996094 " transform="matrix(1,0,0,-1,0,0)"/>
<path style=" stroke:none;fill-rule:evenodd;fill:rgb(90.194702%,90.586853%,90.979004%);fill-opacity:1;" d="M 78.78125 104.195312 L 85.570312 110.988281 L 78.476562 110.988281 L 71.6875 104.195312 L 78.78125 104.195312 "/>
<path style="fill:none;stroke-width:0.5;stroke-linecap:round;stroke-linejoin:round;stroke:rgb(13.725281%,12.156677%,12.548828%);stroke-opacity:1;stroke-miterlimit:10;" d="M 85.578125 -110.996094 L 78.484375 -110.996094 " transform="matrix(1,0,0,-1,0,0)"/>
<path style=" stroke:none;fill-rule:evenodd;fill:rgb(90.194702%,90.586853%,90.979004%);fill-opacity:1;" d="M 71.679688 104.195312 L 78.472656 110.988281 L 71.527344 110.988281 L 64.585938 104.195312 L 71.679688 104.195312 "/>
<path style="fill:none;stroke-width:0.5;stroke-linecap:round;stroke-linejoin:round;stroke:rgb(13.725281%,12.156677%,12.548828%);stroke-opacity:1;stroke-miterlimit:10;" d="M 78.480469 -110.996094 L 71.535156 -110.996094 " transform="matrix(1,0,0,-1,0,0)"/>
<path style=" stroke:none;fill-rule:evenodd;fill:rgb(90.194702%,90.586853%,90.979004%);fill-opacity:1;" d="M 64.578125 104.195312 L 71.523438 110.988281 L 64.277344 110.988281 L 57.484375 104.195312 L 64.578125 104.195312 "/>
<path style="fill:none;stroke-width:0.5;stroke-linecap:round;stroke-linejoin:round;stroke:rgb(13.725281%,12.156677%,12.548828%);stroke-opacity:1;stroke-miterlimit:10;" d="M 71.480469 -110.996094 L 64.234375 -110.996094 " transform="matrix(1,0,0,-1,0,0)"/>
<path style=" stroke:none;fill-rule:evenodd;fill:rgb(90.194702%,90.586853%,90.979004%);fill-opacity:1;" d="M 57.480469 104.195312 L 64.273438 110.988281 L 57.179688 110.988281 L 50.386719 104.195312 L 57.480469 104.195312 "/>
<path style="fill:none;stroke-width:0.5;stroke-linecap:round;stroke-linejoin:round;stroke:rgb(13.725281%,12.156677%,12.548828%);stroke-opacity:1;stroke-miterlimit:10;" d="M 64.28125 -110.996094 L 57.1875 -110.996094 " transform="matrix(1,0,0,-1,0,0)"/>
<path style=" stroke:none;fill-rule:evenodd;fill:rgb(90.194702%,90.586853%,90.979004%);fill-opacity:1;" d="M 50.378906 104.195312 L 57.171875 110.988281 L 50.230469 110.988281 L 43.4375 104.195312 L 50.378906 104.195312 "/>
<path style="fill:none;stroke-width:0.5;stroke-linecap:round;stroke-linejoin:round;stroke:rgb(13.725281%,12.156677%,12.548828%);stroke-opacity:1;stroke-miterlimit:10;" d="M 57.179688 -110.996094 L 50.234375 -110.996094 " transform="matrix(1,0,0,-1,0,0)"/>
<path style=" stroke:none;fill-rule:evenodd;fill:rgb(90.194702%,90.586853%,90.979004%);fill-opacity:1;" d="M 43.378906 104.195312 L 50.171875 110.988281 L 43.078125 110.988281 L 36.285156 104.195312 L 43.378906 104.195312 "/>
<path style="fill:none;stroke-width:0.5;stroke-linecap:round;stroke-linejoin:round;stroke:rgb(13.725281%,12.156677%,12.548828%);stroke-opacity:1;stroke-miterlimit:10;" d="M 50.179688 -110.996094 L 43.085938 -110.996094 " transform="matrix(1,0,0,-1,0,0)"/>
<path style=" stroke:none;fill-rule:evenodd;fill:rgb(90.194702%,90.586853%,90.979004%);fill-opacity:1;" d="M 36.28125 104.195312 L 43.074219 110.988281 L 35.828125 110.988281 L 29.035156 104.195312 L 36.28125 104.195312 "/>
<path style="fill:none;stroke-width:0.5;stroke-linecap:round;stroke-linejoin:round;stroke:rgb(13.725281%,12.156677%,12.548828%);stroke-opacity:1;stroke-miterlimit:10;" d="M 43.078125 -110.996094 L 35.835938 -110.996094 " transform="matrix(1,0,0,-1,0,0)"/>
<path style=" stroke:none;fill-rule:evenodd;fill:rgb(90.194702%,90.586853%,90.979004%);fill-opacity:1;" d="M 29.078125 104.195312 L 35.871094 110.988281 L 28.777344 110.988281 L 21.984375 104.195312 L 29.078125 104.195312 "/>
<path style="fill:none;stroke-width:0.5;stroke-linecap:round;stroke-linejoin:round;stroke:rgb(13.725281%,12.156677%,12.548828%);stroke-opacity:1;stroke-miterlimit:10;" d="M 35.878906 -110.996094 L 28.785156 -110.996094 " transform="matrix(1,0,0,-1,0,0)"/>
<path style=" stroke:none;fill-rule:evenodd;fill:rgb(90.194702%,90.586853%,90.979004%);fill-opacity:1;" d="M 21.980469 104.195312 L 28.773438 110.988281 L 21.828125 110.988281 L 15.035156 104.195312 L 21.980469 104.195312 "/>
<path style="fill:none;stroke-width:0.5;stroke-linecap:round;stroke-linejoin:round;stroke:rgb(13.725281%,12.156677%,12.548828%);stroke-opacity:1;stroke-miterlimit:10;" d="M 28.78125 -110.996094 L 21.835938 -110.996094 " transform="matrix(1,0,0,-1,0,0)"/>
<path style=" stroke:none;fill-rule:evenodd;fill:rgb(90.194702%,90.586853%,90.979004%);fill-opacity:1;" d="M 15.078125 104.195312 L 21.871094 110.988281 L 16.136719 109.777344 L 9.191406 102.988281 L 15.078125 104.195312 "/>
<path style="fill:none;stroke-width:0.5;stroke-linecap:round;stroke-linejoin:round;stroke:rgb(13.725281%,12.156677%,12.548828%);stroke-opacity:1;stroke-miterlimit:10;" d="M 21.878906 -110.996094 L 16.144531 -109.785156 " transform="matrix(1,0,0,-1,0,0)"/>
<path style=" stroke:none;fill-rule:evenodd;fill:rgb(90.194702%,90.586853%,90.979004%);fill-opacity:1;" d="M 9.148438 102.996094 L 16.09375 109.785156 L 11.867188 107.523438 L 5.074219 100.730469 L 9.148438 102.996094 "/>
<path style="fill:none;stroke-width:0.5;stroke-linecap:round;stroke-linejoin:round;stroke:rgb(13.725281%,12.156677%,12.548828%);stroke-opacity:1;stroke-miterlimit:10;" d="M 16.078125 -109.792969 L 11.851562 -107.53125 M 109.511719 -21.34375 L 116.28125 -28.132812 M 5.058594 -100.738281 L 11.851562 -107.53125 " transform="matrix(1,0,0,-1,0,0)"/>
<path style=" stroke:none;fill-rule:nonzero;fill:rgb(100%,100%,100%);fill-opacity:1;" d="M 57.378906 17.394531 L 14.808594 17.394531 C 6.769531 17.394531 0.25 23.882812 0.25 31.882812 L 0.25 89.84375 C 0.25 97.84375 6.769531 104.335938 14.808594 104.335938 L 99.949219 104.335938 C 107.988281 104.335938 114.511719 97.84375 114.511719 89.84375 L 114.511719 31.882812 C 114.511719 23.882812 107.988281 17.394531 99.949219 17.394531 L 57.378906 17.394531 "/>
<path style="fill:none;stroke-width:0.5;stroke-linecap:round;stroke-linejoin:round;stroke:rgb(13.725281%,12.156677%,12.548828%);stroke-opacity:1;stroke-miterlimit:10;" d="M 57.378906 -17.394531 L 14.808594 -17.394531 C 6.769531 -17.394531 0.25 -23.882812 0.25 -31.882812 L 0.25 -89.84375 C 0.25 -97.84375 6.769531 -104.335938 14.808594 -104.335938 L 99.949219 -104.335938 C 107.988281 -104.335938 114.511719 -97.84375 114.511719 -89.84375 L 114.511719 -31.882812 C 114.511719 -23.882812 107.988281 -17.394531 99.949219 -17.394531 Z M 57.378906 -17.394531 " transform="matrix(1,0,0,-1,0,0)"/>
<path style=" stroke:none;fill-rule:evenodd;fill:rgb(77.645874%,78.430176%,79.214478%);fill-opacity:1;" d="M 279.179688 21.292969 L 285.972656 28.085938 L 288.6875 31.257812 L 281.898438 24.464844 L 279.179688 21.292969 "/>
<path style="fill:none;stroke-width:0.5;stroke-linecap:round;stroke-linejoin:round;stroke:rgb(13.725281%,12.156677%,12.548828%);stroke-opacity:1;stroke-miterlimit:10;" d="M 285.980469 -28.09375 L 288.695312 -31.265625 " transform="matrix(1,0,0,-1,0,0)"/>
<g clip-path="url(#clip1)" clip-rule="nonzero">
<path style=" stroke:none;fill-rule:evenodd;fill:rgb(77.645874%,78.430176%,79.214478%);fill-opacity:1;" d="M 281.878906 24.496094 L 288.671875 31.285156 L 290.179688 35.515625 L 283.386719 28.71875 L 281.878906 24.496094 "/>
</g>
<g clip-path="url(#clip2)" clip-rule="nonzero">
<path style="fill:none;stroke-width:0.5;stroke-linecap:round;stroke-linejoin:round;stroke:rgb(13.725281%,12.156677%,12.548828%);stroke-opacity:1;stroke-miterlimit:10;" d="M 288.679688 -31.292969 L 290.191406 -35.519531 " transform="matrix(1,0,0,-1,0,0)"/>
</g>
<g clip-path="url(#clip3)" clip-rule="nonzero">
<path style=" stroke:none;fill-rule:evenodd;fill:rgb(77.645874%,78.430176%,79.214478%);fill-opacity:1;" d="M 283.378906 28.695312 L 290.171875 35.488281 L 290.625 40.625 L 283.832031 33.828125 L 283.378906 28.695312 "/>
</g>
<g clip-path="url(#clip4)" clip-rule="nonzero">
<path style="fill:none;stroke-width:0.5;stroke-linecap:round;stroke-linejoin:round;stroke:rgb(13.725281%,12.156677%,12.548828%);stroke-opacity:1;stroke-miterlimit:10;" d="M 290.179688 -35.496094 L 290.632812 -40.628906 " transform="matrix(1,0,0,-1,0,0)"/>
</g>
<g clip-path="url(#clip5)" clip-rule="nonzero">
<path style=" stroke:none;fill-rule:evenodd;fill:rgb(77.645874%,78.430176%,79.214478%);fill-opacity:1;" d="M 283.878906 33.894531 L 290.671875 40.6875 L 290.671875 46.125 L 283.878906 39.328125 L 283.878906 33.894531 "/>
</g>
<g clip-path="url(#clip6)" clip-rule="nonzero">
<path style=" stroke:none;fill-rule:evenodd;fill:rgb(77.645874%,78.430176%,79.214478%);fill-opacity:1;" d="M 283.878906 39.292969 L 290.671875 46.085938 L 290.671875 51.523438 L 283.878906 44.730469 L 283.878906 39.292969 "/>
</g>
<g clip-path="url(#clip7)" clip-rule="nonzero">
<path style=" stroke:none;fill-rule:evenodd;fill:rgb(77.645874%,78.430176%,79.214478%);fill-opacity:1;" d="M 283.878906 44.695312 L 290.671875 51.488281 L 290.671875 56.773438 L 283.878906 49.976562 L 283.878906 44.695312 "/>
</g>
<g clip-path="url(#clip8)" clip-rule="nonzero">
<path style=" stroke:none;fill-rule:evenodd;fill:rgb(77.645874%,78.430176%,79.214478%);fill-opacity:1;" d="M 283.878906 49.996094 L 290.671875 56.789062 L 290.671875 62.222656 L 283.878906 55.429688 L 283.878906 49.996094 "/>
</g>
<g clip-path="url(#clip9)" clip-rule="nonzero">
<path style=" stroke:none;fill-rule:evenodd;fill:rgb(77.645874%,78.430176%,79.214478%);fill-opacity:1;" d="M 283.878906 55.496094 L 290.671875 62.289062 L 290.671875 67.722656 L 283.878906 60.925781 L 283.878906 55.496094 "/>
</g>
<g clip-path="url(#clip10)" clip-rule="nonzero">
<path style=" stroke:none;fill-rule:evenodd;fill:rgb(77.645874%,78.430176%,79.214478%);fill-opacity:1;" d="M 283.878906 60.894531 L 290.671875 67.6875 L 290.671875 73.273438 L 283.878906 66.328125 L 283.878906 60.894531 "/>
</g>
<g clip-path="url(#clip11)" clip-rule="nonzero">
<path style=" stroke:none;fill-rule:evenodd;fill:rgb(77.645874%,78.430176%,79.214478%);fill-opacity:1;" d="M 283.878906 66.292969 L 290.671875 73.238281 L 290.671875 78.523438 L 283.878906 71.730469 L 283.878906 66.292969 "/>
</g>
<g clip-path="url(#clip12)" clip-rule="nonzero">
<path style=" stroke:none;fill-rule:evenodd;fill:rgb(77.645874%,78.430176%,79.214478%);fill-opacity:1;" d="M 283.878906 71.792969 L 290.671875 78.585938 L 290.671875 84.023438 L 283.878906 77.230469 L 283.878906 71.792969 "/>
</g>
<g clip-path="url(#clip13)" clip-rule="nonzero">
<path style=" stroke:none;fill-rule:evenodd;fill:rgb(77.645874%,78.430176%,79.214478%);fill-opacity:1;" d="M 283.878906 77.195312 L 290.671875 83.988281 L 290.671875 89.425781 L 283.878906 82.628906 L 283.878906 77.195312 "/>
</g>
<g clip-path="url(#clip14)" clip-rule="nonzero">
<path style=" stroke:none;fill-rule:evenodd;fill:rgb(77.645874%,78.430176%,79.214478%);fill-opacity:1;" d="M 283.878906 82.59375 L 290.671875 89.386719 L 290.671875 94.824219 L 283.878906 88.03125 L 283.878906 82.59375 "/>
</g>
<g clip-path="url(#clip15)" clip-rule="nonzero">
<path style=" stroke:none;fill-rule:evenodd;fill:rgb(77.645874%,78.430176%,79.214478%);fill-opacity:1;" d="M 283.878906 88.09375 L 290.671875 94.886719 L 290.222656 100.023438 L 283.429688 93.226562 L 283.878906 88.09375 "/>
</g>
<g clip-path="url(#clip16)" clip-rule="nonzero">
<path style="fill:none;stroke-width:0.5;stroke-linecap:round;stroke-linejoin:round;stroke:rgb(13.725281%,12.156677%,12.548828%);stroke-opacity:1;stroke-miterlimit:10;" d="M 290.679688 -94.792969 L 290.226562 -99.925781 " transform="matrix(1,0,0,-1,0,0)"/>
</g>
<g clip-path="url(#clip17)" clip-rule="nonzero">
<path style=" stroke:none;fill-rule:evenodd;fill:rgb(77.645874%,78.430176%,79.214478%);fill-opacity:1;" d="M 283.378906 93.195312 L 290.171875 99.988281 L 288.664062 104.214844 L 281.871094 97.417969 L 283.378906 93.195312 "/>
</g>
<g clip-path="url(#clip18)" clip-rule="nonzero">
<path style="fill:none;stroke-width:0.5;stroke-linecap:round;stroke-linejoin:round;stroke:rgb(13.725281%,12.156677%,12.548828%);stroke-opacity:1;stroke-miterlimit:10;" d="M 290.179688 -99.996094 L 288.671875 -104.21875 " transform="matrix(1,0,0,-1,0,0)"/>
</g>
<path style=" stroke:none;fill-rule:evenodd;fill:rgb(77.645874%,78.430176%,79.214478%);fill-opacity:1;" d="M 281.878906 97.394531 L 288.671875 104.1875 L 285.953125 107.355469 L 279.160156 100.566406 L 281.878906 97.394531 "/>
<path style="fill:none;stroke-width:0.5;stroke-linecap:round;stroke-linejoin:round;stroke:rgb(13.725281%,12.156677%,12.548828%);stroke-opacity:1;stroke-miterlimit:10;" d="M 288.679688 -104.195312 L 285.964844 -107.363281 " transform="matrix(1,0,0,-1,0,0)"/>
<path style=" stroke:none;fill-rule:evenodd;fill:rgb(90.194702%,90.586853%,90.979004%);fill-opacity:1;" d="M 279.179688 100.59375 L 285.972656 107.386719 L 282.195312 109.800781 L 275.40625 103.007812 L 279.179688 100.59375 "/>
<path style="fill:none;stroke-width:0.5;stroke-linecap:round;stroke-linejoin:round;stroke:rgb(13.725281%,12.156677%,12.548828%);stroke-opacity:1;stroke-miterlimit:10;" d="M 285.980469 -107.394531 L 282.203125 -109.808594 " transform="matrix(1,0,0,-1,0,0)"/>
<path style=" stroke:none;fill-rule:evenodd;fill:rgb(90.194702%,90.586853%,90.979004%);fill-opacity:1;" d="M 275.378906 102.996094 L 282.171875 109.785156 L 276.4375 110.996094 L 269.492188 104.203125 L 275.378906 102.996094 "/>
<path style="fill:none;stroke-width:0.5;stroke-linecap:round;stroke-linejoin:round;stroke:rgb(13.725281%,12.156677%,12.548828%);stroke-opacity:1;stroke-miterlimit:10;" d="M 282.179688 -109.792969 L 276.445312 -111.003906 " transform="matrix(1,0,0,-1,0,0)"/>
<path style=" stroke:none;fill-rule:evenodd;fill:rgb(90.194702%,90.586853%,90.979004%);fill-opacity:1;" d="M 269.578125 104.195312 L 276.523438 110.988281 L 269.429688 110.988281 L 262.636719 104.195312 L 269.578125 104.195312 "/>
<path style="fill:none;stroke-width:0.5;stroke-linecap:round;stroke-linejoin:round;stroke:rgb(13.725281%,12.156677%,12.548828%);stroke-opacity:1;stroke-miterlimit:10;" d="M 276.480469 -110.996094 L 269.382812 -110.996094 " transform="matrix(1,0,0,-1,0,0)"/>
<path style=" stroke:none;fill-rule:evenodd;fill:rgb(90.194702%,90.586853%,90.979004%);fill-opacity:1;" d="M 262.578125 104.195312 L 269.371094 110.988281 L 262.277344 110.988281 L 255.488281 104.195312 L 262.578125 104.195312 "/>
<path style="fill:none;stroke-width:0.5;stroke-linecap:round;stroke-linejoin:round;stroke:rgb(13.725281%,12.156677%,12.548828%);stroke-opacity:1;stroke-miterlimit:10;" d="M 269.378906 -110.996094 L 262.285156 -110.996094 " transform="matrix(1,0,0,-1,0,0)"/>
<path style=" stroke:none;fill-rule:evenodd;fill:rgb(90.194702%,90.586853%,90.979004%);fill-opacity:1;" d="M 255.480469 104.195312 L 262.273438 110.988281 L 255.027344 110.988281 L 248.234375 104.195312 L 255.480469 104.195312 "/>
<path style="fill:none;stroke-width:0.5;stroke-linecap:round;stroke-linejoin:round;stroke:rgb(13.725281%,12.156677%,12.548828%);stroke-opacity:1;stroke-miterlimit:10;" d="M 262.28125 -110.996094 L 255.035156 -110.996094 " transform="matrix(1,0,0,-1,0,0)"/>
<path style=" stroke:none;fill-rule:evenodd;fill:rgb(90.194702%,90.586853%,90.979004%);fill-opacity:1;" d="M 248.28125 104.195312 L 255.074219 110.988281 L 247.980469 110.988281 L 241.1875 104.195312 L 248.28125 104.195312 "/>
<path style="fill:none;stroke-width:0.5;stroke-linecap:round;stroke-linejoin:round;stroke:rgb(13.725281%,12.156677%,12.548828%);stroke-opacity:1;stroke-miterlimit:10;" d="M 255.078125 -110.996094 L 247.988281 -110.996094 " transform="matrix(1,0,0,-1,0,0)"/>
<path style=" stroke:none;fill-rule:evenodd;fill:rgb(90.194702%,90.586853%,90.979004%);fill-opacity:1;" d="M 241.179688 104.195312 L 247.972656 110.988281 L 241.027344 110.988281 L 234.234375 104.195312 L 241.179688 104.195312 "/>
<path style="fill:none;stroke-width:0.5;stroke-linecap:round;stroke-linejoin:round;stroke:rgb(13.725281%,12.156677%,12.548828%);stroke-opacity:1;stroke-miterlimit:10;" d="M 247.980469 -110.996094 L 241.035156 -110.996094 " transform="matrix(1,0,0,-1,0,0)"/>
<path style=" stroke:none;fill-rule:evenodd;fill:rgb(90.194702%,90.586853%,90.979004%);fill-opacity:1;" d="M 234.179688 104.195312 L 240.972656 110.988281 L 233.882812 110.988281 L 227.089844 104.195312 L 234.179688 104.195312 "/>
<path style="fill:none;stroke-width:0.5;stroke-linecap:round;stroke-linejoin:round;stroke:rgb(13.725281%,12.156677%,12.548828%);stroke-opacity:1;stroke-miterlimit:10;" d="M 240.980469 -110.996094 L 233.886719 -110.996094 " transform="matrix(1,0,0,-1,0,0)"/>
<path style=" stroke:none;fill-rule:evenodd;fill:rgb(90.194702%,90.586853%,90.979004%);fill-opacity:1;" d="M 227.078125 104.195312 L 233.871094 110.988281 L 226.777344 110.988281 L 219.984375 104.195312 L 227.078125 104.195312 "/>
<path style="fill:none;stroke-width:0.5;stroke-linecap:round;stroke-linejoin:round;stroke:rgb(13.725281%,12.156677%,12.548828%);stroke-opacity:1;stroke-miterlimit:10;" d="M 233.878906 -110.996094 L 226.785156 -110.996094 " transform="matrix(1,0,0,-1,0,0)"/>
<path style=" stroke:none;fill-rule:evenodd;fill:rgb(90.194702%,90.586853%,90.979004%);fill-opacity:1;" d="M 219.980469 104.195312 L 226.773438 110.988281 L 219.828125 110.988281 L 212.886719 104.195312 L 219.980469 104.195312 "/>
<path style="fill:none;stroke-width:0.5;stroke-linecap:round;stroke-linejoin:round;stroke:rgb(13.725281%,12.156677%,12.548828%);stroke-opacity:1;stroke-miterlimit:10;" d="M 226.78125 -110.996094 L 219.835938 -110.996094 " transform="matrix(1,0,0,-1,0,0)"/>
<path style=" stroke:none;fill-rule:evenodd;fill:rgb(90.194702%,90.586853%,90.979004%);fill-opacity:1;" d="M 212.878906 104.195312 L 219.824219 110.988281 L 212.578125 110.988281 L 205.785156 104.195312 L 212.878906 104.195312 "/>
<path style="fill:none;stroke-width:0.5;stroke-linecap:round;stroke-linejoin:round;stroke:rgb(13.725281%,12.156677%,12.548828%);stroke-opacity:1;stroke-miterlimit:10;" d="M 219.878906 -110.996094 L 212.636719 -110.996094 " transform="matrix(1,0,0,-1,0,0)"/>
<path style=" stroke:none;fill-rule:evenodd;fill:rgb(90.194702%,90.586853%,90.979004%);fill-opacity:1;" d="M 205.878906 104.195312 L 212.671875 110.988281 L 205.425781 110.988281 L 198.636719 104.195312 L 205.878906 104.195312 "/>
<path style="fill:none;stroke-width:0.5;stroke-linecap:round;stroke-linejoin:round;stroke:rgb(13.725281%,12.156677%,12.548828%);stroke-opacity:1;stroke-miterlimit:10;" d="M 212.578125 -110.996094 L 205.332031 -110.996094 " transform="matrix(1,0,0,-1,0,0)"/>
<path style=" stroke:none;fill-rule:evenodd;fill:rgb(90.194702%,90.586853%,90.979004%);fill-opacity:1;" d="M 198.578125 104.195312 L 205.371094 110.988281 L 198.277344 110.988281 L 191.484375 104.195312 L 198.578125 104.195312 "/>
<path style="fill:none;stroke-width:0.5;stroke-linecap:round;stroke-linejoin:round;stroke:rgb(13.725281%,12.156677%,12.548828%);stroke-opacity:1;stroke-miterlimit:10;" d="M 205.378906 -110.996094 L 198.285156 -110.996094 " transform="matrix(1,0,0,-1,0,0)"/>
<path style=" stroke:none;fill-rule:evenodd;fill:rgb(90.194702%,90.586853%,90.979004%);fill-opacity:1;" d="M 191.480469 104.195312 L 198.273438 110.988281 L 191.328125 110.988281 L 184.535156 104.195312 L 191.480469 104.195312 "/>
<path style="fill:none;stroke-width:0.5;stroke-linecap:round;stroke-linejoin:round;stroke:rgb(13.725281%,12.156677%,12.548828%);stroke-opacity:1;stroke-miterlimit:10;" d="M 198.28125 -110.996094 L 191.339844 -110.996094 " transform="matrix(1,0,0,-1,0,0)"/>
<path style=" stroke:none;fill-rule:evenodd;fill:rgb(90.194702%,90.586853%,90.979004%);fill-opacity:1;" d="M 184.578125 104.195312 L 191.371094 110.988281 L 185.636719 109.777344 L 178.84375 102.988281 L 184.578125 104.195312 "/>
<path style="fill:none;stroke-width:0.5;stroke-linecap:round;stroke-linejoin:round;stroke:rgb(13.725281%,12.156677%,12.548828%);stroke-opacity:1;stroke-miterlimit:10;" d="M 191.378906 -110.996094 L 185.644531 -109.785156 " transform="matrix(1,0,0,-1,0,0)"/>
<path style=" stroke:none;fill-rule:evenodd;fill:rgb(90.194702%,90.586853%,90.979004%);fill-opacity:1;" d="M 178.78125 102.996094 L 185.574219 109.785156 L 181.496094 107.523438 L 174.703125 100.730469 L 178.78125 102.996094 "/>
<path style="fill:none;stroke-width:0.5;stroke-linecap:round;stroke-linejoin:round;stroke:rgb(13.725281%,12.156677%,12.548828%);stroke-opacity:1;stroke-miterlimit:10;" d="M 185.578125 -109.792969 L 181.503906 -107.53125 M 279.160156 -21.34375 L 285.980469 -28.132812 M 174.710938 -100.738281 L 181.503906 -107.53125 " transform="matrix(1,0,0,-1,0,0)"/>
<path style=" stroke:none;fill-rule:nonzero;fill:rgb(100%,100%,100%);fill-opacity:1;" d="M 227.078125 17.394531 L 184.441406 17.394531 C 176.441406 17.394531 169.949219 23.882812 169.949219 31.882812 L 169.949219 89.84375 C 169.949219 97.84375 176.441406 104.335938 184.441406 104.335938 L 269.71875 104.335938 C 277.71875 104.335938 284.210938 97.84375 284.210938 89.84375 L 284.210938 31.882812 C 284.210938 23.882812 277.71875 17.394531 269.71875 17.394531 L 227.078125 17.394531 "/>
<path style="fill:none;stroke-width:0.5;stroke-linecap:round;stroke-linejoin:round;stroke:rgb(13.725281%,12.156677%,12.548828%);stroke-opacity:1;stroke-miterlimit:10;" d="M 227.078125 -17.394531 L 184.441406 -17.394531 C 176.441406 -17.394531 169.949219 -23.882812 169.949219 -31.882812 L 169.949219 -89.84375 C 169.949219 -97.84375 176.441406 -104.335938 184.441406 -104.335938 L 269.71875 -104.335938 C 277.71875 -104.335938 284.210938 -97.84375 284.210938 -89.84375 L 284.210938 -31.882812 C 284.210938 -23.882812 277.71875 -17.394531 269.71875 -17.394531 Z M 227.078125 -17.394531 " transform="matrix(1,0,0,-1,0,0)"/>
<g style="fill:rgb(13.725281%,12.156677%,12.548828%);fill-opacity:1;">
  <use xlink:href="#glyph0-1" x="139.879995" y="132.294544"/>
  <use xlink:href="#glyph0-2" x="145.656011" y="132.294544"/>
  <use xlink:href="#glyph0-3" x="150.104023" y="132.294544"/>
</g>
<g clip-path="url(#clip19)" clip-rule="nonzero">
<g style="fill:rgb(13.725281%,12.156677%,12.548828%);fill-opacity:1;">
  <use xlink:href="#glyph0-4" x="151.879985" y="132.294544"/>
</g>
</g>
<g style="fill:rgb(13.725281%,12.156677%,12.548828%);fill-opacity:1;">
  <use xlink:href="#glyph0-1" x="98.055995" y="5.894547"/>
  <use xlink:href="#glyph0-5" x="103.832011" y="5.894547"/>
  <use xlink:href="#glyph0-6" x="108.280023" y="5.894547"/>
  <use xlink:href="#glyph0-4" x="112.728035" y="5.894547"/>
  <use xlink:href="#glyph0-7" x="117.176048" y="5.894547"/>
  <use xlink:href="#glyph0-3" x="118.952052" y="5.894547"/>
  <use xlink:href="#glyph0-8" x="120.728057" y="5.894547"/>
  <use xlink:href="#glyph0-9" x="125.17607" y="5.894547"/>
  <use xlink:href="#glyph0-10" x="129.624082" y="5.894547"/>
  <use xlink:href="#glyph0-11" x="131.840088" y="5.894547"/>
  <use xlink:href="#glyph0-7" x="136.2881" y="5.894547"/>
  <use xlink:href="#glyph0-11" x="138.064105" y="5.894547"/>
  <use xlink:href="#glyph0-12" x="142.512117" y="5.894547"/>
  <use xlink:href="#glyph0-11" x="149.176136" y="5.894547"/>
  <use xlink:href="#glyph0-8" x="153.624148" y="5.894547"/>
  <use xlink:href="#glyph0-13" x="158.07216" y="5.894547"/>
  <use xlink:href="#glyph0-10" x="160.288166" y="5.894547"/>
  <use xlink:href="#glyph0-14" x="162.504172" y="5.894547"/>
  <use xlink:href="#glyph0-15" x="165.16818" y="5.894547"/>
  <use xlink:href="#glyph0-5" x="169.168191" y="5.894547"/>
  <use xlink:href="#glyph0-3" x="173.616203" y="5.894547"/>
  <use xlink:href="#glyph0-7" x="175.392208" y="5.894547"/>
  <use xlink:href="#glyph0-16" x="177.168213" y="5.894547"/>
  <use xlink:href="#glyph0-10" x="179.384219" y="5.894547"/>
  <use xlink:href="#glyph0-17" x="181.600225" y="5.894547"/>
  <use xlink:href="#glyph0-8" x="186.048237" y="5.894547"/>
  <use xlink:href="#glyph0-13" x="190.496249" y="5.894547"/>
  <use xlink:href="#glyph0-11" x="192.712255" y="5.894547"/>
  <use xlink:href="#glyph0-8" x="197.160268" y="5.894547"/>
  <use xlink:href="#glyph0-8" x="201.60828" y="5.894547"/>
  <use xlink:href="#glyph0-17" x="206.056292" y="5.894547"/>
  <use xlink:href="#glyph0-18" x="210.504304" y="5.894547"/>
</g>
<g style="fill:rgb(13.725281%,12.156677%,12.548828%);fill-opacity:1;">
  <use xlink:href="#glyph0-19" x="130.216003" y="94.294542"/>
  <use xlink:href="#glyph0-5" x="135.992019" y="94.294542"/>
  <use xlink:href="#glyph0-6" x="140.440032" y="94.294542"/>
  <use xlink:href="#glyph0-20" x="144.888044" y="94.294542"/>
  <use xlink:href="#glyph0-3" x="148.888055" y="94.294542"/>
  <use xlink:href="#glyph0-8" x="150.66406" y="94.294542"/>
  <use xlink:href="#glyph0-9" x="155.112072" y="94.294542"/>
</g>
<path style="fill-rule:nonzero;fill:rgb(77.645874%,78.430176%,79.214478%);fill-opacity:1;stroke-width:0.5;stroke-linecap:butt;stroke-linejoin:miter;stroke:rgb(77.645874%,78.430176%,79.214478%);stroke-opacity:1;stroke-miterlimit:10;" d="M 180.179688 32.792969 L 189.234375 32.792969 L 189.234375 89.09375 L 180.179688 89.09375 Z M 180.179688 32.792969 "/>
<path style="fill-rule:nonzero;fill:rgb(77.645874%,78.430176%,79.214478%);fill-opacity:1;stroke-width:0.5;stroke-linecap:butt;stroke-linejoin:miter;stroke:rgb(77.645874%,78.430176%,79.214478%);stroke-opacity:1;stroke-miterlimit:10;" d="M 264.878906 32.792969 L 274.089844 32.792969 L 274.089844 89.09375 L 264.878906 89.09375 Z M 264.878906 32.792969 "/>
<path style="fill:none;stroke-width:0.5;stroke-linecap:round;stroke-linejoin:round;stroke:rgb(13.725281%,12.156677%,12.548828%);stroke-opacity:1;stroke-miterlimit:10;" d="M 16.078125 -24.792969 L 106.5 -24.792969 L 106.5 -86.984375 L 16.078125 -86.984375 L 16.078125 -29.925781 L 98.949219 -29.925781 L 98.949219 -81.703125 L 23.628906 -81.703125 L 23.628906 -35.054688 L 91.398438 -35.054688 L 91.398438 -76.566406 L 31.171875 -76.566406 L 31.171875 -40.34375 L 83.851562 -40.34375 L 83.851562 -71.433594 L 38.570312 -71.433594 L 38.570312 -97.246094 M 16.078125 -24.792969 L 8.382812 -24.792969 L 8.382812 -97.246094 M 8.984375 -97.246094 L 38.570312 -97.246094 M 251.078125 -32.644531 L 221.480469 -4.566406 M 147.878906 -123.425781 L 226.480469 -44.265625 M 34.699219 -95.042969 L 147.878906 -123.425781 M 143.28125 -85.132812 L 169.78125 -61.023438 M 114.339844 -61.023438 L 143.28125 -85.132812 M 89.738281 -4.566406 L 54.269531 -30.53125 " transform="matrix(1,0,0,-1,0,0)"/>
<path style=" stroke:none;fill-rule:nonzero;fill:rgb(77.645874%,78.430176%,79.214478%);fill-opacity:1;" d="M 183.78125 32.84375 L 221.96875 32.84375 L 221.96875 40.695312 L 183.78125 40.695312 Z M 183.78125 32.84375 "/>
<path style="fill:none;stroke-width:0.5;stroke-linecap:butt;stroke-linejoin:miter;stroke:rgb(77.645874%,78.430176%,79.214478%);stroke-opacity:1;stroke-miterlimit:10;" d="M 183.78125 32.792969 L 221.96875 32.792969 L 221.96875 40.644531 L 183.78125 40.644531 Z M 183.78125 32.792969 "/>
<path style="fill-rule:nonzero;fill:rgb(77.645874%,78.430176%,79.214478%);fill-opacity:1;stroke-width:0.5;stroke-linecap:butt;stroke-linejoin:miter;stroke:rgb(77.645874%,78.430176%,79.214478%);stroke-opacity:1;stroke-miterlimit:10;" d="M 230.480469 32.792969 L 272.289062 32.792969 L 272.289062 40.644531 L 230.480469 40.644531 Z M 230.480469 32.792969 "/>
<path style="fill-rule:nonzero;fill:rgb(65.489197%,66.273499%,67.449951%);fill-opacity:1;stroke-width:0.5;stroke-linecap:butt;stroke-linejoin:miter;stroke:rgb(13.725281%,12.156677%,12.548828%);stroke-opacity:1;stroke-miterlimit:10;" d="M 16.378906 87.792969 L 34.339844 87.792969 L 34.339844 102.132812 L 16.378906 102.132812 Z M 16.378906 87.792969 "/>
<path style="fill-rule:nonzero;fill:rgb(65.489197%,66.273499%,67.449951%);fill-opacity:1;stroke-width:0.5;stroke-linecap:butt;stroke-linejoin:miter;stroke:rgb(13.725281%,12.156677%,12.548828%);stroke-opacity:1;stroke-miterlimit:10;" d="M 217.578125 29.792969 L 235.691406 29.792969 L 235.691406 44.132812 L 217.578125 44.132812 Z M 217.578125 29.792969 "/>
</g>
</svg>
