<svg version="1.1" xmlns="http://www.w3.org/2000/svg" viewBox="0 0 199.9764404296875 195.85379028320312" width="399.952880859375" height="391.70758056640625">
  <rect x="0" y="0" width="199.9764404296875" height="195.85379028320312" fill="#ffffff"></rect><g stroke-linecap="round" transform="translate(10 10) rotate(0 89.98822021484375 87.92689514160156)"><path d="M101.77 0.66 C112.61 0.67, 124.08 6.35, 134.16 12.12 C144.24 17.9, 155.21 26.42, 162.26 35.3 C169.31 44.18, 173.55 54.68, 176.46 65.42 C179.37 76.15, 181.01 88.81, 179.74 99.73 C178.47 110.66, 174.77 121.3, 168.84 130.95 C162.91 140.59, 153.58 150.51, 144.17 157.61 C134.76 164.71, 123.46 170.8, 112.39 173.57 C101.31 176.33, 88.76 175.88, 77.7 174.18 C66.63 172.49, 55.97 168.86, 45.99 163.38 C36.02 157.9, 25.08 150.07, 17.85 141.31 C10.63 132.55, 5.33 121.61, 2.64 110.79 C-0.05 99.98, 0 87.47, 1.72 76.43 C3.45 65.39, 7.5 54.27, 12.96 44.54 C18.42 34.8, 25.68 25.07, 34.49 18.03 C43.31 11, 53.05 5, 65.84 2.32 C78.63 -0.36, 102.5 1.4, 111.25 1.96 C120.01 2.52, 118.85 4.19, 118.35 5.68" stroke="#000000" stroke-width="1.5" fill="none" stroke-dasharray="1.5 7"></path></g><g transform="translate(56.23699951171875 54.76734924316406) rotate(0 3.5 12.5)"><text x="0" y="18" font-family="Virgil, Segoe UI Emoji" font-size="20px" fill="#000000" text-anchor="start" style="white-space: pre;" direction="ltr">l</text></g><g transform="translate(139.87774658203125 51.05549621582031) rotate(0 3.5 12.5)"><text x="0" y="18" font-family="Virgil, Segoe UI Emoji" font-size="20px" fill="#000000" text-anchor="start" style="white-space: pre;" direction="ltr">l</text></g><g transform="translate(91.1905517578125 126.01966857910156) rotate(0 9.5 12.5)"><text x="0" y="18" font-family="Virgil, Segoe UI Emoji" font-size="20px" fill="#000000" text-anchor="start" style="white-space: pre;" direction="ltr">_</text></g></svg>